# 3ds Max Wavefront OBJ Exporter v0.99 - (c)2007 guruware
# File Created: 18.04.2025 13:04:55

mtllib arbol3.mtl

#
# object 5_Cylinder_011
#

v  0.0947 1.4128 -0.0947
v  0.0947 -0.0025 -0.0947
v  -0.0000 -0.0025 -0.1339
v  -0.0000 1.4128 -0.1339
v  0.1339 1.4128 0.0000
v  0.1339 -0.0025 0.0000
v  0.0947 1.4128 0.0947
v  0.0947 -0.0025 0.0947
v  -0.0000 1.4128 0.1339
v  -0.0000 -0.0025 0.1339
v  -0.0947 1.4128 0.0947
v  -0.0947 -0.0025 0.0947
v  -0.1339 1.4128 0.0000
v  -0.1339 -0.0025 0.0000
v  -0.0947 1.4128 -0.0947
v  -0.0947 -0.0025 -0.0947
# 16 vertices

vn 0.3827 0.0000 -0.9239
vn 0.9239 0.0000 -0.3827
vn 0.9239 0.0000 0.3827
vn 0.3827 0.0000 0.9239
vn -0.3827 0.0000 0.9239
vn -0.9239 0.0000 0.3827
vn 0.0000 1.0000 -0.0000
vn -0.9239 0.0000 -0.3827
vn -0.3827 0.0000 -0.9239
vn 0.0000 -1.0000 -0.0000
# 10 vertex normals

vt 0.8750 1.0000 0.0000
vt 0.8750 0.5000 0.0000
vt 1.0000 0.5000 0.0000
vt 1.0000 1.0000 0.0000
vt 0.7500 1.0000 0.0000
vt 0.7500 0.5000 0.0000
vt 0.6250 1.0000 0.0000
vt 0.6250 0.5000 0.0000
vt 0.5000 1.0000 0.0000
vt 0.5000 0.5000 0.0000
vt 0.3750 1.0000 0.0000
vt 0.3750 0.5000 0.0000
vt 0.2500 1.0000 0.0000
vt 0.2500 0.5000 0.0000
vt 0.4197 0.0803 0.0000
vt 0.4900 0.2500 0.0000
vt 0.4197 0.4197 0.0000
vt 0.0803 0.0803 0.0000
vt 0.2500 0.4900 0.0000
vt 0.0803 0.4197 0.0000
vt 0.0100 0.2500 0.0000
vt 0.2500 0.0100 0.0000
vt 0.1250 1.0000 0.0000
vt 0.1250 0.5000 0.0000
vt 0.0000 1.0000 0.0000
vt 0.0000 0.5000 0.0000
vt 0.5100 0.2500 0.0000
vt 0.5803 0.4197 0.0000
vt 0.7500 0.4900 0.0000
vt 0.7500 0.0100 0.0000
vt 0.9197 0.4197 0.0000
vt 0.9900 0.2500 0.0000
vt 0.9197 0.0803 0.0000
vt 0.5803 0.0803 0.0000
# 34 texture coords

o 5_Cylinder_011
g 5_Cylinder_011
usemtl 2_Cylinder_002_mso
s off
f 1/1/1 2/2/1 3/3/1 4/4/1 
f 5/5/2 6/6/2 2/2/2 1/1/2 
f 7/7/3 8/8/3 6/6/3 5/5/3 
f 9/9/4 10/10/4 8/8/4 7/7/4 
f 11/11/5 12/12/5 10/10/5 9/9/5 
f 13/13/6 14/14/6 12/12/6 11/11/6 
f 7/15/7 5/16/7 1/17/7 11/18/7 
f 1/17/7 4/19/7 15/20/7 11/18/7 
f 15/20/7 13/21/7 11/18/7 
f 9/22/7 7/15/7 11/18/7 
f 15/23/8 16/24/8 14/14/8 13/13/8 
f 4/25/9 3/26/9 16/24/9 15/23/9 
f 14/27/10 16/28/10 3/29/10 10/30/10 
f 3/29/10 2/31/10 6/32/10 10/30/10 
f 6/32/10 8/33/10 10/30/10 
f 12/34/10 14/27/10 10/30/10 
# 12 polygons - 4 triangles

#
# object Copa4
#

v  -0.0000 5.8228 -0.0516
v  0.0303 5.8228 -0.0417
v  0.5878 1.0643 -0.8090
v  -0.0000 1.0643 -1.0000
v  0.9511 1.0643 -0.3090
v  0.0490 5.8228 -0.0159
v  0.9511 1.0643 0.3090
v  0.0490 5.8228 0.0159
v  0.0303 5.8228 0.0417
v  0.5878 1.0643 0.8090
v  -0.0000 5.8228 0.0516
v  -0.0000 1.0643 1.0000
v  -0.0303 5.8228 0.0417
v  -0.5878 1.0643 0.8090
v  -0.0490 5.8228 0.0159
v  -0.9511 1.0643 0.3090
v  -0.9511 1.0643 -0.3090
v  -0.0490 5.8228 -0.0159
v  -0.0303 5.8228 -0.0417
v  -0.5878 1.0643 -0.8090
v  0.5472 1.9833 -0.7531
v  -0.0000 1.9833 -0.9309
v  -0.0000 6.4132 -0.0480
v  0.0282 6.4132 -0.0388
v  0.0457 6.4132 -0.0148
v  0.8854 1.9833 -0.2877
v  0.0457 6.4132 0.0148
v  0.8854 1.9833 0.2877
v  0.0282 6.4132 0.0388
v  0.5472 1.9833 0.7531
v  -0.0000 6.4132 0.0480
v  -0.0000 1.9833 0.9309
v  -0.5472 1.9833 0.7531
v  -0.0282 6.4132 0.0388
v  -0.0457 6.4132 0.0148
v  -0.8854 1.9833 0.2877
v  -0.8854 1.9833 -0.2877
v  -0.0457 6.4132 -0.0148
v  -0.0282 6.4132 -0.0388
v  -0.5472 1.9833 -0.7531
v  0.4399 3.1399 -0.6054
v  -0.0000 3.1399 -0.7484
v  -0.0000 6.7010 -0.0386
v  0.0227 6.7010 -0.0312
v  0.0367 6.7010 -0.0119
v  0.7117 3.1399 -0.2313
v  0.7117 3.1399 0.2313
v  0.0367 6.7010 0.0119
v  0.4399 3.1399 0.6054
v  0.0227 6.7010 0.0312
v  -0.0000 6.7010 0.0386
v  -0.0000 3.1399 0.7484
v  -0.0227 6.7010 0.0312
v  -0.4399 3.1399 0.6054
v  -0.0367 6.7010 0.0119
v  -0.7117 3.1399 0.2313
v  -0.0367 6.7010 -0.0119
v  -0.7117 3.1399 -0.2313
v  -0.0227 6.7010 -0.0312
v  -0.4399 3.1399 -0.6054
# 60 vertices

vn 0.3036 0.1862 -0.9344
vn 0.7949 0.1862 -0.5775
vn 0.9825 0.1862 0.0000
vn 0.7949 0.1862 0.5775
vn 0.3036 0.1862 0.9344
vn -0.3036 0.1862 0.9344
vn -0.7949 0.1862 0.5775
vn -0.9825 0.1862 0.0000
vn 0.0000 1.0000 -0.0000
vn -0.7949 0.1862 -0.5775
vn -0.3036 0.1862 -0.9344
vn 0.0000 -1.0000 -0.0000
# 12 vertex normals

vt 1.0000 1.0000 0.0000
vt 0.9000 1.0000 0.0000
vt 0.9000 0.5000 0.0000
vt 1.0000 0.5000 0.0000
vt 0.8000 0.5000 0.0000
vt 0.8000 1.0000 0.0000
vt 0.7000 0.5000 0.0000
vt 0.7000 1.0000 0.0000
vt 0.6000 1.0000 0.0000
vt 0.6000 0.5000 0.0000
vt 0.5000 1.0000 0.0000
vt 0.5000 0.5000 0.0000
vt 0.4000 1.0000 0.0000
vt 0.4000 0.5000 0.0000
vt 0.3000 1.0000 0.0000
vt 0.3000 0.5000 0.0000
vt 0.2000 0.5000 0.0000
vt 0.2000 1.0000 0.0000
vt 0.2500 0.0100 0.0000
vt 0.3911 0.0558 0.0000
vt 0.4783 0.1758 0.0000
vt 0.0217 0.1758 0.0000
vt 0.4783 0.3242 0.0000
vt 0.3911 0.4442 0.0000
vt 0.2500 0.4900 0.0000
vt 0.1089 0.4442 0.0000
vt 0.0217 0.3242 0.0000
vt 0.1089 0.0558 0.0000
vt 0.1000 1.0000 0.0000
vt 0.1000 0.5000 0.0000
vt -0.0000 1.0000 0.0000
vt -0.0000 0.5000 0.0000
vt 0.5217 0.3242 0.0000
vt 0.6089 0.4442 0.0000
vt 0.7500 0.4900 0.0000
vt 0.5217 0.1758 0.0000
vt 0.8911 0.4442 0.0000
vt 0.9783 0.3242 0.0000
vt 0.6089 0.0558 0.0000
vt 0.7500 0.0100 0.0000
vt 0.9783 0.1758 0.0000
vt 0.8911 0.0558 0.0000
# 42 texture coords

o Copa4
g Copa4
usemtl 07___Default
s off
f 17/35/11 18/36/11 19/37/11 20/38/11 
f 21/39/12 19/37/12 18/36/12 22/40/12 
f 23/41/13 21/39/13 22/40/13 24/42/13 
f 24/42/14 25/43/14 26/44/14 23/41/14 
f 27/45/15 28/46/15 26/44/15 25/43/15 
f 27/45/16 29/47/16 30/48/16 28/46/16 
f 31/49/17 32/50/17 30/48/17 29/47/17 
f 33/51/18 32/50/18 31/49/18 34/52/18 
f 27/53/19 25/54/19 24/55/19 31/56/19 
f 24/55/19 22/57/19 18/58/19 31/56/19 
f 17/59/19 35/60/19 34/61/19 31/56/19 
f 18/58/19 17/59/19 31/56/19 
f 27/53/19 31/56/19 29/62/19 
f 34/52/20 35/63/20 36/64/20 33/51/20 
f 17/65/21 20/66/21 36/64/21 35/63/21 
f 33/67/22 36/68/22 20/69/22 32/70/22 
f 20/69/22 19/71/22 21/72/22 32/70/22 
f 30/73/22 32/70/22 21/72/22 28/74/22 
f 21/72/22 23/75/22 26/76/22 28/74/22 
f 37/37/11 38/38/11 39/35/11 40/36/11 
f 40/36/12 41/40/12 42/39/12 37/37/12 
f 43/42/13 44/41/13 42/39/13 41/40/13 
f 45/43/14 46/44/14 44/41/14 43/42/14 
f 45/43/15 47/45/15 48/46/15 46/44/15 
f 49/48/16 48/46/16 47/45/16 50/47/16 
f 51/49/17 52/50/17 49/48/17 50/47/17 
f 53/51/18 52/50/18 51/49/18 54/52/18 
f 41/57/19 40/58/19 39/59/19 43/55/19 
f 45/54/19 43/55/19 39/59/19 47/53/19 
f 50/62/19 47/53/19 39/59/19 51/56/19 
f 55/60/19 54/61/19 51/56/19 39/59/19 
f 54/52/20 55/63/20 56/64/20 53/51/20 
f 38/66/21 56/64/21 55/63/21 39/65/21 
f 46/76/22 48/74/22 49/73/22 52/70/22 
f 52/70/22 53/67/22 56/68/22 38/69/22 
f 52/70/22 38/69/22 37/71/22 46/76/22 
f 46/76/22 37/71/22 42/72/22 44/75/22 
f 57/37/11 58/38/11 59/35/11 60/36/11 
f 60/36/12 61/40/12 62/39/12 57/37/12 
f 63/41/13 62/39/13 61/40/13 64/42/13 
f 65/44/14 63/41/14 64/42/14 66/43/14 
f 67/45/15 68/46/15 65/44/15 66/43/15 
f 69/47/16 70/48/16 68/46/16 67/45/16 
f 71/49/17 72/50/17 70/48/17 69/47/17 
f 71/49/18 73/52/18 74/51/18 72/50/18 
f 75/60/19 73/61/19 71/56/19 59/59/19 
f 59/59/19 71/56/19 69/62/19 67/53/19 
f 59/59/19 67/53/19 66/54/19 64/55/19 
f 59/59/19 64/55/19 61/57/19 60/58/19 
f 73/52/20 75/63/20 76/64/20 74/51/20 
f 75/63/21 59/65/21 58/66/21 76/64/21 
f 65/76/22 68/74/22 70/73/22 62/72/22 
f 72/70/22 74/67/22 76/68/22 70/73/22 
f 58/69/22 57/71/22 62/72/22 76/68/22 
f 70/73/22 76/68/22 62/72/22 
f 63/75/22 65/76/22 62/72/22 
# 52 polygons - 4 triangles

