# 3ds Max Wavefront OBJ Exporter v0.99 - (c)2007 guruware
# File Created: 18.04.2025 13:02:13

mtllib arbol2.mtl

#
# object 1_Cylinder_010
#

v  -0.1010 1.8253 -0.0251
v  -0.1031 1.8141 0.0172
v  -0.6998 2.8873 0.2552
v  -0.6992 2.8901 0.2448
v  -0.0727 1.8481 -0.0498
v  -0.6923 2.8957 0.2388
v  -0.0349 1.8692 -0.0424
v  -0.6831 2.9008 0.2406
v  -0.0097 1.8761 -0.0071
v  -0.6769 2.9025 0.2492
v  -0.0118 1.8648 0.0352
v  -0.6774 2.8998 0.2596
v  -0.0400 1.8420 0.0599
v  -0.6843 2.8942 0.2657
v  -0.0778 1.8210 0.0525
v  -0.6936 2.8890 0.2638
v  0.0435 3.6926 -0.0365
v  0.1335 0.0163 -0.1265
v  0.0143 0.0163 -0.1759
v  0.0143 3.6926 -0.0486
v  0.0556 3.6926 -0.0073
v  0.1829 0.0163 -0.0073
v  0.0435 3.6926 0.0219
v  0.1335 0.0163 0.1120
v  0.0143 3.6926 0.0340
v  0.0143 0.0163 0.1613
v  -0.1050 0.0163 0.1120
v  -0.0150 3.6926 0.0219
v  -0.0271 3.6926 -0.0073
v  -0.1544 0.0163 -0.0073
v  -0.1050 0.0163 -0.1265
v  -0.0150 3.6926 -0.0365
v  0.0755 1.0672 -0.0397
v  0.0143 1.0799 -0.0617
v  0.0143 2.6829 0.9394
v  0.0293 2.6798 0.9448
v  0.1009 1.0365 0.0134
v  0.0355 2.6723 0.9578
v  0.0755 1.0059 0.0664
v  0.0293 2.6648 0.9708
v  0.0143 0.9932 0.0884
v  0.0143 2.6617 0.9762
v  -0.0470 1.0059 0.0664
v  -0.0008 2.6648 0.9708
v  -0.0724 1.0365 0.0134
v  -0.0070 2.6723 0.9578
v  -0.0470 1.0672 -0.0397
v  -0.0008 2.6798 0.9448
v  0.0544 0.2400 -0.1198
v  0.0143 0.2287 -0.1320
v  0.0143 1.1635 -0.9429
v  0.0241 1.1663 -0.9399
v  0.0710 0.2673 -0.0904
v  0.0282 1.1729 -0.9327
v  0.0544 0.2946 -0.0610
v  0.0241 1.1796 -0.9255
v  0.0143 0.3060 -0.0489
v  0.0143 1.1824 -0.9225
v  -0.0259 0.2946 -0.0610
v  0.0044 1.1796 -0.9255
v  -0.0425 0.2673 -0.0904
v  0.0004 1.1729 -0.9327
v  -0.0259 0.2400 -0.1198
v  0.0044 1.1663 -0.9399
# 64 vertices

vn -0.8772 -0.4515 -0.1634
vn -0.5911 -0.1303 -0.7960
vn 0.0318 0.2829 -0.9586
vn 0.6266 0.5461 -0.5560
vn 0.8449 0.5052 0.1760
vn 0.5588 0.1840 0.8086
vn 0.5055 -0.8398 -0.1977
vn -0.0641 -0.2292 0.9713
vn -0.6589 -0.4924 0.5687
vn -0.5055 0.8398 0.1977
vn 0.3825 0.0320 -0.9234
vn 0.9234 0.0320 -0.3825
vn 0.9234 0.0320 0.3825
vn 0.3825 0.0320 0.9234
vn -0.3825 0.0320 0.9234
vn -0.9234 0.0320 0.3825
vn -0.0000 -1.0000 -0.0000
vn -0.9234 0.0320 -0.3825
vn -0.3825 0.0320 -0.9234
vn 0.0000 1.0000 0.0000
vn 0.3825 0.4894 -0.7837
vn 0.9234 0.2189 -0.3153
vn 0.9234 -0.1636 0.3472
vn 0.3825 -0.4340 0.8157
vn -0.3825 -0.4340 0.8157
vn -0.9234 -0.1635 0.3472
vn 0.0000 -0.8660 -0.5000
vn -0.9234 0.2189 -0.3153
vn -0.3825 0.4894 -0.7837
vn 0.0000 0.8660 0.5000
vn 0.3825 -0.6055 -0.6979
vn 0.9234 -0.2371 -0.3019
vn 0.9234 0.2839 0.2583
vn 0.3825 0.6523 0.6544
vn -0.3825 0.6523 0.6544
vn -0.9234 0.2839 0.2583
vn 0.0000 -0.7323 0.6810
vn -0.9234 -0.2371 -0.3019
vn -0.3825 -0.6055 -0.6979
vn -0.0000 0.7323 -0.6810
# 40 vertex normals

vt 0.8750 1.0000 0.0000
vt 1.0000 1.0000 0.0000
vt 1.0000 0.5000 0.0000
vt 0.8750 0.5000 0.0000
vt 0.7500 1.0000 0.0000
vt 0.7500 0.5000 0.0000
vt 0.6250 1.0000 0.0000
vt 0.6250 0.5000 0.0000
vt 0.5000 1.0000 0.0000
vt 0.5000 0.5000 0.0000
vt 0.3750 1.0000 0.0000
vt 0.3750 0.5000 0.0000
vt 0.2500 1.0000 0.0000
vt 0.2500 0.5000 0.0000
vt 0.0803 0.4197 0.0000
vt 0.2500 0.4900 0.0000
vt 0.4197 0.4197 0.0000
vt 0.0803 0.0803 0.0000
vt 0.4900 0.2500 0.0000
vt 0.4197 0.0803 0.0000
vt 0.2500 0.0100 0.0000
vt 0.0100 0.2500 0.0000
vt 0.1250 1.0000 0.0000
vt 0.1250 0.5000 0.0000
vt 0.0000 1.0000 0.0000
vt 0.0000 0.5000 0.0000
vt 0.9197 0.0803 0.0000
vt 0.9900 0.2500 0.0000
vt 0.9197 0.4197 0.0000
vt 0.7500 0.4900 0.0000
vt 0.5803 0.4197 0.0000
vt 0.5100 0.2500 0.0000
vt 0.5803 0.0803 0.0000
vt 0.7500 0.0100 0.0000
# 34 texture coords

o 1_Cylinder_010
g 1_Cylinder_010
usemtl 2_Cylinder_002_mso
s off
f 1/1/1 2/2/1 3/3/1 4/4/1 
f 5/5/2 1/1/2 4/4/2 6/6/2 
f 7/7/3 5/5/3 6/6/3 8/8/3 
f 9/9/4 7/7/4 8/8/4 10/10/4 
f 11/11/5 9/9/5 10/10/5 12/12/5 
f 13/13/6 11/11/6 12/12/6 14/14/6 
f 15/15/7 2/16/7 1/17/7 11/18/7 
f 1/17/7 5/19/7 7/20/7 11/18/7 
f 7/20/7 9/21/7 11/18/7 
f 13/22/7 15/15/7 11/18/7 
f 15/23/8 13/13/8 14/14/8 16/24/8 
f 2/25/9 15/23/9 16/24/9 3/26/9 
f 8/27/10 6/28/10 4/29/10 3/30/10 
f 8/27/10 3/30/10 16/31/10 14/32/10 
f 8/27/10 14/32/10 12/33/10 10/34/10 
f 17/4/11 18/1/11 19/2/11 20/3/11 
f 21/6/12 22/5/12 18/1/12 17/4/12 
f 22/5/13 21/6/13 23/8/13 24/7/13 
f 25/10/14 26/9/14 24/7/14 23/8/14 
f 27/11/15 26/9/15 25/10/15 28/12/15 
f 29/14/16 30/13/16 27/11/16 28/12/16 
f 27/18/17 30/22/17 31/15/17 24/20/17 
f 31/15/17 19/16/17 18/17/17 24/20/17 
f 18/17/17 22/19/17 24/20/17 
f 26/21/17 27/18/17 24/20/17 
f 31/23/18 30/13/18 29/14/18 32/24/18 
f 20/26/19 19/25/19 31/23/19 32/24/19 
f 28/33/20 25/34/20 23/27/20 32/31/20 
f 23/27/20 21/28/20 17/29/20 32/31/20 
f 17/29/20 20/30/20 32/31/20 
f 29/32/20 28/33/20 32/31/20 
f 33/1/21 34/2/21 35/3/21 36/4/21 
f 37/5/22 33/1/22 36/4/22 38/6/22 
f 39/7/23 37/5/23 38/6/23 40/8/23 
f 41/9/24 39/7/24 40/8/24 42/10/24 
f 43/11/25 41/9/25 42/10/25 44/12/25 
f 45/13/26 43/11/26 44/12/26 46/14/26 
f 47/15/27 34/16/27 33/17/27 43/18/27 
f 33/17/27 37/19/27 39/20/27 43/18/27 
f 39/20/27 41/21/27 43/18/27 
f 45/22/27 47/15/27 43/18/27 
f 48/24/28 47/23/28 45/13/28 46/14/28 
f 47/23/29 48/24/29 35/26/29 34/25/29 
f 38/28/30 36/29/30 35/30/30 42/34/30 
f 35/30/30 48/31/30 46/32/30 42/34/30 
f 46/32/30 44/33/30 42/34/30 
f 40/27/30 38/28/30 42/34/30 
f 49/1/31 50/2/31 51/3/31 52/4/31 
f 53/5/32 49/1/32 52/4/32 54/6/32 
f 55/7/33 53/5/33 54/6/33 56/8/33 
f 57/9/34 55/7/34 56/8/34 58/10/34 
f 59/11/35 57/9/35 58/10/35 60/12/35 
f 61/13/36 59/11/36 60/12/36 62/14/36 
f 59/18/37 61/22/37 63/15/37 55/20/37 
f 63/15/37 50/16/37 49/17/37 55/20/37 
f 49/17/37 53/19/37 55/20/37 
f 57/21/37 59/18/37 55/20/37 
f 61/13/38 62/14/38 64/24/38 63/23/38 
f 50/25/39 63/23/39 64/24/39 51/26/39 
f 56/27/40 54/28/40 52/29/40 51/30/40 
f 56/27/40 51/30/40 64/31/40 62/32/40 
f 56/27/40 62/32/40 60/33/40 58/34/40 
# 50 polygons - 12 triangles

#
# object Icosphere_Icosphere_003
#

v  0.1045 0.2872 -0.8577
v  0.5986 0.6647 -0.4986
v  -0.0843 0.6647 -0.2767
v  0.5986 0.6647 -1.2167
v  -0.5064 0.6647 -0.8577
v  -0.0843 0.6647 -1.4386
v  0.7153 1.2755 -0.8577
v  0.2932 1.2755 -0.2767
v  -0.3897 1.2755 -0.4986
v  -0.3897 1.2755 -1.2167
v  0.2932 1.2755 -1.4386
v  0.1045 1.6530 -0.8577
v  0.2806 1.6849 0.8377
v  0.7748 2.0625 1.1968
v  0.0918 2.0625 1.4187
v  0.7748 2.0625 0.4786
v  -0.3303 2.0625 0.8377
v  0.0918 2.0625 0.2567
v  0.8914 2.6734 0.8377
v  0.4693 2.6734 1.4187
v  -0.2137 2.6734 1.1968
v  -0.2137 2.6734 0.4786
v  0.4693 2.6734 0.2567
v  0.2806 3.0509 0.8377
v  -0.5549 2.0597 -0.0023
v  -0.1221 2.3904 0.3122
v  -0.7203 2.3904 0.5066
v  -0.1221 2.3904 -0.3168
v  -1.0900 2.3904 -0.0023
v  -0.7203 2.3904 -0.5112
v  -0.0199 2.9255 -0.0023
v  -0.3896 2.9255 0.5066
v  -0.9878 2.9255 0.3122
v  -0.9878 2.9255 -0.3168
v  -0.3896 2.9255 -0.5112
v  -0.5549 3.2562 -0.0023
v  0.1387 2.7772 -0.0023
v  0.5693 3.1062 0.3105
v  -0.0258 3.1062 0.5039
v  0.5693 3.1062 -0.3151
v  -0.3936 3.1062 -0.0023
v  -0.0258 3.1062 -0.5085
v  0.6709 3.6384 -0.0023
v  0.3031 3.6384 0.5039
v  -0.2919 3.6384 0.3105
v  -0.2919 3.6384 -0.3151
v  0.3031 3.6384 -0.5085
v  0.1387 3.9674 -0.0023
# 48 vertices

vn 0.1876 -0.7947 0.5774
vn 0.6071 -0.7947 0.0000
vn -0.4911 -0.7947 0.3568
vn -0.4911 -0.7947 -0.3568
vn 0.1876 -0.7947 -0.5774
vn 0.9822 -0.1876 0.0000
vn 0.3035 -0.1876 0.9342
vn -0.7946 -0.1876 0.5774
vn -0.7946 -0.1876 -0.5774
vn 0.3035 -0.1876 -0.9342
vn 0.7946 0.1876 0.5774
vn -0.3035 0.1876 0.9342
vn -0.9822 0.1876 0.0000
vn -0.3035 0.1876 -0.9342
vn 0.7946 0.1876 -0.5774
vn 0.4911 0.7947 0.3568
vn -0.1876 0.7947 0.5774
vn -0.6071 0.7947 0.0000
vn -0.1876 0.7947 -0.5774
vn 0.4911 0.7947 -0.3568
# 20 vertex normals

vt 0.8182 0.0000 0.0000
vt 0.7273 0.1575 0.0000
vt 0.9091 0.1575 0.0000
vt 0.6364 0.0000 0.0000
vt 0.5455 0.1575 0.0000
vt 0.0909 0.0000 0.0000
vt 0.0000 0.1575 0.0000
vt 0.1818 0.1575 0.0000
vt 0.2727 0.0000 0.0000
vt 0.3636 0.1575 0.0000
vt 0.4545 0.0000 0.0000
vt 0.6364 0.3149 0.0000
vt 0.8182 0.3149 0.0000
vt 0.0909 0.3149 0.0000
vt 0.2727 0.3149 0.0000
vt 0.4545 0.3149 0.0000
vt 1.0000 0.3149 0.0000
vt 0.7273 0.4724 0.0000
vt 0.9091 0.4724 0.0000
vt 0.1818 0.4724 0.0000
vt 0.3636 0.4724 0.0000
vt 0.5455 0.4724 0.0000
# 22 texture coords

o Icosphere_Icosphere_003
g Icosphere_Icosphere_003
usemtl 4_Cylinder_mso
s off
f 65/35/41 66/36/41 67/37/41 
f 66/36/42 65/38/42 68/39/42 
f 65/40/43 67/41/43 69/42/43 
f 65/43/44 69/42/44 70/44/44 
f 65/45/45 70/44/45 68/39/45 
f 66/36/46 68/39/46 71/46/46 
f 67/37/47 66/36/47 72/47/47 
f 69/42/48 67/41/48 73/48/48 
f 70/44/49 69/42/49 74/49/49 
f 68/39/50 70/44/50 75/50/50 
f 66/36/51 71/46/51 72/47/51 
f 67/37/52 72/47/52 73/51/52 
f 69/42/53 73/48/53 74/49/53 
f 70/44/54 74/49/54 75/50/54 
f 68/39/55 75/50/55 71/46/55 
f 72/47/56 71/46/56 76/52/56 
f 73/51/57 72/47/57 76/53/57 
f 74/49/58 73/48/58 76/54/58 
f 75/50/59 74/49/59 76/55/59 
f 71/46/60 75/50/60 76/56/60 
f 77/35/41 78/36/41 79/37/41 
f 78/36/42 77/38/42 80/39/42 
f 77/40/43 79/41/43 81/42/43 
f 77/43/44 81/42/44 82/44/44 
f 77/45/45 82/44/45 80/39/45 
f 78/36/46 80/39/46 83/46/46 
f 79/37/47 78/36/47 84/47/47 
f 81/42/48 79/41/48 85/48/48 
f 82/44/49 81/42/49 86/49/49 
f 80/39/50 82/44/50 87/50/50 
f 78/36/51 83/46/51 84/47/51 
f 79/37/52 84/47/52 85/51/52 
f 81/42/53 85/48/53 86/49/53 
f 82/44/54 86/49/54 87/50/54 
f 80/39/55 87/50/55 83/46/55 
f 84/47/56 83/46/56 88/52/56 
f 85/51/57 84/47/57 88/53/57 
f 86/49/58 85/48/58 88/54/58 
f 87/50/59 86/49/59 88/55/59 
f 83/46/60 87/50/60 88/56/60 
f 89/35/41 90/36/41 91/37/41 
f 90/36/42 89/38/42 92/39/42 
f 89/40/43 91/41/43 93/42/43 
f 89/43/44 93/42/44 94/44/44 
f 89/45/45 94/44/45 92/39/45 
f 90/36/46 92/39/46 95/46/46 
f 91/37/47 90/36/47 96/47/47 
f 93/42/48 91/41/48 97/48/48 
f 94/44/49 93/42/49 98/49/49 
f 92/39/50 94/44/50 99/50/50 
f 90/36/51 95/46/51 96/47/51 
f 91/37/52 96/47/52 97/51/52 
f 93/42/53 97/48/53 98/49/53 
f 94/44/54 98/49/54 99/50/54 
f 92/39/55 99/50/55 95/46/55 
f 96/47/56 95/46/56 100/52/56 
f 97/51/57 96/47/57 100/53/57 
f 98/49/58 97/48/58 100/54/58 
f 99/50/59 98/49/59 100/55/59 
f 95/46/60 99/50/60 100/56/60 
f 101/35/41 102/36/41 103/37/41 
f 102/36/42 101/38/42 104/39/42 
f 101/40/43 103/41/43 105/42/43 
f 101/43/44 105/42/44 106/44/44 
f 101/45/45 106/44/45 104/39/45 
f 102/36/46 104/39/46 107/46/46 
f 103/37/47 102/36/47 108/47/47 
f 105/42/48 103/41/48 109/48/48 
f 106/44/49 105/42/49 110/49/49 
f 104/39/50 106/44/50 111/50/50 
f 102/36/51 107/46/51 108/47/51 
f 103/37/52 108/47/52 109/51/52 
f 105/42/53 109/48/53 110/49/53 
f 106/44/54 110/49/54 111/50/54 
f 104/39/55 111/50/55 107/46/55 
f 108/47/56 107/46/56 112/52/56 
f 109/51/57 108/47/57 112/53/57 
f 110/49/58 109/48/58 112/54/58 
f 111/50/59 110/49/59 112/55/59 
f 107/46/60 111/50/60 112/56/60 
# 0 polygons - 80 triangles

