# 3ds Max Wavefront OBJ Exporter v0.99 - (c)2007 guruware
# File Created: 18.04.2025 13:07:53

mtllib arbol4.mtl

#
# object Copa3
#

v  -2.1028 1.3296 2.1416
v  0.0388 5.6128 0.0000
v  -2.1028 1.3296 -2.1416
v  2.1805 1.3296 -2.1416
v  2.1805 1.3296 2.1416
v  -1.6634 2.8021 1.7022
v  0.0388 6.2066 0.0000
v  -1.6634 2.8021 -1.7022
v  1.7411 2.8021 -1.7022
v  1.7411 2.8021 1.7022
v  -1.3452 3.9477 1.3840
v  0.0388 6.7158 0.0000
v  -1.3452 3.9477 -1.3840
v  1.4229 3.9477 -1.3840
v  1.4229 3.9477 1.3840
# 15 vertices

vn -0.8944 0.4472 0.0000
vn 0.0000 0.4472 -0.8944
vn 0.8944 0.4472 0.0000
vn 0.0000 0.4472 0.8944
vn 0.0000 -1.0000 -0.0000
# 5 vertex normals

vt 0.3750 0.0000 0.0000
vt 0.6250 0.2500 0.0000
vt 0.3750 0.2500 0.0000
vt 0.6250 0.5000 0.0000
vt 0.3750 0.5000 0.0000
vt 0.6250 0.7500 0.0000
vt 0.3750 0.7500 0.0000
vt 0.6250 1.0000 0.0000
vt 0.3750 1.0000 0.0000
vt 0.1250 0.7500 0.0000
vt 0.1250 0.5000 0.0000
# 11 texture coords

o Copa3
g Copa3
usemtl 07___Default
s off
f 1/1/1 2/2/1 3/3/1 
f 3/3/2 2/4/2 4/5/2 
f 4/5/3 2/6/3 5/7/3 
f 5/7/4 2/8/4 1/9/4 
f 5/7/5 1/10/5 3/11/5 4/5/5 
f 6/1/1 7/2/1 8/3/1 
f 8/3/2 7/4/2 9/5/2 
f 9/5/3 7/6/3 10/7/3 
f 10/7/4 7/8/4 6/9/4 
f 10/7/5 6/10/5 8/11/5 9/5/5 
f 11/1/1 12/2/1 13/3/1 
f 13/3/2 12/4/2 14/5/2 
f 14/5/3 12/6/3 15/7/3 
f 15/7/4 12/8/4 11/9/4 
f 15/7/5 11/10/5 13/11/5 14/5/5 
# 3 polygons - 12 triangles

#
# object Tronco3
#

v  -0.0097 1.8947 -0.6102
v  0.4217 1.8947 -0.4315
v  0.4217 0.0094 -0.4315
v  -0.0097 0.0094 -0.6102
v  0.6005 1.8947 -0.0000
v  0.6005 0.0094 -0.0000
v  0.4217 1.8947 0.4315
v  0.4217 0.0094 0.4315
v  -0.0097 1.8947 0.6102
v  -0.0097 0.0094 0.6102
v  -0.4412 1.8947 0.4315
v  -0.4412 0.0094 0.4315
v  -0.6199 1.8947 -0.0000
v  -0.6199 0.0094 -0.0000
v  -0.4412 1.8947 -0.4315
v  -0.4412 0.0094 -0.4315
# 16 vertices

vn 0.3827 0.0000 -0.9239
vn 0.9239 0.0000 -0.3827
vn 0.9239 0.0000 0.3827
vn 0.3827 0.0000 0.9239
vn -0.3827 0.0000 0.9239
vn -0.9239 0.0000 0.3827
vn 0.0000 1.0000 -0.0000
vn -0.9239 0.0000 -0.3827
vn -0.3827 0.0000 -0.9239
vn 0.0000 -1.0000 -0.0000
# 10 vertex normals

vt 1.0000 1.0000 0.0000
vt 0.8750 1.0000 0.0000
vt 0.8750 0.5000 0.0000
vt 1.0000 0.5000 0.0000
vt 0.7500 1.0000 0.0000
vt 0.7500 0.5000 0.0000
vt 0.6250 1.0000 0.0000
vt 0.6250 0.5000 0.0000
vt 0.5000 1.0000 0.0000
vt 0.5000 0.5000 0.0000
vt 0.3750 1.0000 0.0000
vt 0.3750 0.5000 0.0000
vt 0.2500 1.0000 0.0000
vt 0.2500 0.5000 0.0000
vt 0.4900 0.2500 0.0000
vt 0.4197 0.4197 0.0000
vt 0.2500 0.4900 0.0000
vt 0.4197 0.0803 0.0000
vt 0.0803 0.4197 0.0000
vt 0.0100 0.2500 0.0000
vt 0.2500 0.0100 0.0000
vt 0.0803 0.0803 0.0000
vt 0.1250 1.0000 0.0000
vt 0.1250 0.5000 0.0000
vt 0.0000 1.0000 0.0000
vt 0.0000 0.5000 0.0000
vt 0.5803 0.0803 0.0000
vt 0.5100 0.2500 0.0000
vt 0.5803 0.4197 0.0000
vt 0.9197 0.0803 0.0000
vt 0.9197 0.4197 0.0000
vt 0.9900 0.2500 0.0000
vt 0.7500 0.4900 0.0000
vt 0.7500 0.0100 0.0000
# 34 texture coords

o Tronco3
g Tronco3
usemtl 2_Cylinder_002_mso
s off
f 16/12/6 17/13/6 18/14/6 19/15/6 
f 17/13/7 20/16/7 21/17/7 18/14/7 
f 22/18/8 23/19/8 21/17/8 20/16/8 
f 24/20/9 25/21/9 23/19/9 22/18/9 
f 26/22/10 27/23/10 25/21/10 24/20/10 
f 28/24/11 29/25/11 27/23/11 26/22/11 
f 20/26/12 17/27/12 16/28/12 22/29/12 
f 16/28/12 30/30/12 28/31/12 22/29/12 
f 24/32/12 22/29/12 28/31/12 26/33/12 
f 28/24/13 30/34/13 31/35/13 29/25/13 
f 31/35/14 30/34/14 16/36/14 19/37/14 
f 27/38/15 29/39/15 31/40/15 23/41/15 
f 18/42/15 21/43/15 23/41/15 19/44/15 
f 31/40/15 19/44/15 23/41/15 
f 27/38/15 23/41/15 25/45/15 
# 13 polygons - 2 triangles

