# 3ds Max Wavefront OBJ Exporter v0.99 - (c)2007 guruware
# File Created: 27.04.2025 14:14:40

mtllib cuadroWario.mtl

#
# object Imagen
#

v  -2.2286 -3.4721 0.0491
v  2.2286 -3.4721 0.0491
v  2.2286 3.4523 -0.1051
v  -2.2286 3.4523 -0.1051
# 4 vertices

vn 0.0000 0.0872 0.9962
# 1 vertex normals

vt 0.5645 0.0039 0.0000
vt 0.9961 0.0039 0.0000
vt 0.9961 0.4414 0.0000
vt 0.5645 0.4414 0.0000
# 4 texture coords

o Imagen
g Imagen
usemtl M_picture_frames
s 4
f 1/1/1 2/2/1 3/3/1 4/4/1 
# 1 polygons

#
# object Marco
#

v  2.7506 -3.9622 0.1247
v  2.8585 -4.0652 0.1295
v  2.8585 4.0856 -0.0519
v  2.7506 3.9824 -0.0521
v  2.3101 -3.5219 0.1126
v  2.3319 -3.5450 0.0519
v  2.3319 3.5624 -0.1063
v  2.3101 3.5419 -0.0447
v  2.9672 -4.1759 0.2565
v  2.9672 4.2018 0.0700
v  2.2072 -3.4190 0.1103
v  2.2072 3.4391 -0.0424
v  2.2072 3.4366 -0.1556
v  2.2072 -3.4216 -0.0029
v  3.1080 4.3445 0.1576
v  -3.1080 4.3445 0.1576
v  -2.9672 4.2018 0.0700
v  3.4413 4.6792 0.2155
v  -3.4413 4.6792 0.2155
v  -3.3360 4.5740 0.2178
v  3.3360 4.5740 0.2178
v  -3.2721 4.5086 0.1539
v  3.2721 4.5086 0.1539
v  -2.2072 3.4391 -0.0424
v  -2.2072 3.4366 -0.1556
v  3.4413 -4.6464 0.4230
v  3.4413 -4.6594 -0.1594
v  3.4413 4.6663 -0.3670
v  3.1080 -4.3146 0.3503
v  -2.2072 -3.4216 -0.0029
v  -2.7506 -3.9622 0.1247
v  -2.7506 3.9824 -0.0521
v  -2.8585 4.0856 -0.0519
v  -2.8585 -4.0652 0.1295
v  -2.3319 3.5624 -0.1063
v  -2.3319 -3.5450 0.0519
v  -2.3101 -3.5219 0.1126
v  -2.3101 3.5419 -0.0447
v  -3.4413 4.6663 -0.3670
v  2.7288 3.9592 -0.1151
v  -2.7288 3.9592 -0.1151
v  -2.7288 -3.9418 0.0608
v  -2.2072 -3.4190 0.1103
v  -2.9672 -4.1759 0.2565
v  -3.4413 -4.6464 0.4230
v  -3.4413 -4.6594 -0.1594
v  -3.2721 -4.4787 0.3540
v  -3.1080 -4.3146 0.3503
v  3.3360 -4.5412 0.4207
v  3.2721 -4.4787 0.3540
v  2.7288 -3.9418 0.0608
v  -3.3360 -4.5412 0.4207
# 52 vertices

vn -0.4489 0.0779 0.8902
vn -0.5106 0.0749 0.8566
vn -0.5106 0.0750 0.8565
vn -0.4489 0.0778 0.8902
vn 0.4457 0.0780 0.8918
vn 0.1370 0.0863 0.9868
vn 0.1370 0.0864 0.9868
vn -0.6517 0.0661 0.7556
vn -0.6517 0.0662 0.7556
vn -0.7352 0.0591 0.6753
vn -1.0000 0.0000 -0.0000
vn 0.0000 -0.1934 0.9811
vn 0.0000 -0.5749 0.8182
vn 0.0000 0.0872 0.9962
vn 0.0000 -0.2724 0.9622
vn 0.0000 -0.1970 0.9804
vn 0.0000 -0.6703 0.7421
vn 0.0000 -0.9962 0.0872
vn 1.0000 0.0000 -0.0000
vn -0.2802 0.0837 0.9563
vn 0.4489 0.0779 0.8902
vn 0.4489 0.0778 0.8902
vn 0.5106 0.0750 0.8565
vn 0.5106 0.0749 0.8566
vn -0.1370 0.0864 0.9868
vn -0.1370 0.0863 0.9868
vn -0.4457 0.0780 0.8918
vn 0.0000 0.5247 0.8513
vn 0.0000 0.9962 -0.0872
vn 0.0000 0.2192 0.9757
vn 0.0000 -0.0748 0.9972
vn 0.1576 0.0860 0.9837
vn 0.1576 0.0861 0.9837
vn 0.7352 0.0591 0.6753
vn 0.6517 0.0661 0.7556
vn 0.6517 0.0662 0.7556
vn 0.0000 -0.3813 0.9245
vn 0.0000 -0.4355 0.9002
vn 0.2802 0.0837 0.9563
vn 0.2800 0.0837 0.9563
vn -0.3564 0.0814 0.9308
vn -0.2800 0.0837 0.9563
vn -0.1576 0.0861 0.9837
vn -0.1576 0.0860 0.9837
vn 0.0000 0.3609 0.9326
vn 0.0000 0.7083 0.7059
vn 0.0000 0.4352 0.9003
vn 0.0000 0.3643 0.9313
vn 0.0000 0.7890 0.6144
vn 0.3564 0.0814 0.9308
vn 0.0000 -0.3688 0.9295
vn 0.0000 0.2468 0.9691
vn 0.0000 -0.0465 0.9989
vn 0.0000 0.5360 0.8442
vn 0.0000 0.5852 0.8109
vn 0.0000 -0.0872 -0.9962
# 56 vertex normals

vt 0.8557 0.0422 0.0000
vt 0.8612 0.0369 0.0000
vt 0.8612 0.4517 0.0000
vt 0.8557 0.4464 0.0000
vt 0.8288 0.0646 0.0000
vt 0.8321 0.0635 0.0000
vt 0.8321 0.4251 0.0000
vt 0.8288 0.4240 0.0000
vt 0.8696 0.0312 0.0000
vt 0.8696 0.4575 0.0000
vt 0.8236 0.0698 0.0000
vt 0.8236 0.4188 0.0000
vt 0.8178 0.4188 0.0000
vt 0.8178 0.0698 0.0000
vt 0.9739 0.8685 0.0000
vt 0.6577 0.8685 0.0000
vt 0.6648 0.8600 0.0000
vt 0.9667 0.8600 0.0000
vt 0.9908 0.8868 0.0000
vt 0.6407 0.8868 0.0000
vt 0.6461 0.8815 0.0000
vt 0.9855 0.8815 0.0000
vt 0.6493 0.8768 0.0000
vt 0.9822 0.8768 0.0000
vt 0.9281 0.8140 0.0000
vt 0.7035 0.8140 0.0000
vt 0.7035 0.8083 0.0000
vt 0.9281 0.8083 0.0000
vt 0.3985 0.0055 0.0000
vt 0.4282 0.0055 0.0000
vt 0.4282 0.4800 0.0000
vt 0.3985 0.4800 0.0000
vt 0.8781 0.0240 0.0000
vt 0.8781 0.4646 0.0000
vt 0.4393 0.0818 0.0000
vt 0.6639 0.0818 0.0000
vt 0.6639 0.4307 0.0000
vt 0.4393 0.4307 0.0000
vt 0.9481 0.0420 0.0000
vt 0.9481 0.4462 0.0000
vt 0.9426 0.4514 0.0000
vt 0.9426 0.0368 0.0000
vt 0.9717 0.4249 0.0000
vt 0.9717 0.0633 0.0000
vt 0.9750 0.0644 0.0000
vt 0.9750 0.4238 0.0000
vt 0.9333 0.8192 0.0000
vt 0.6983 0.8192 0.0000
vt 0.7853 0.0070 0.0000
vt 0.7853 0.0367 0.0000
vt 0.4353 0.0367 0.0000
vt 0.4353 0.0070 0.0000
vt 0.9344 0.8225 0.0000
vt 0.9546 0.8427 0.0000
vt 0.6770 0.8427 0.0000
vt 0.6972 0.8225 0.0000
vt 0.9515 0.4451 0.0000
vt 0.9515 0.0431 0.0000
vt 0.9802 0.0696 0.0000
vt 0.9802 0.4186 0.0000
vt 0.9342 0.0310 0.0000
vt 0.9342 0.4572 0.0000
vt 0.9557 0.8461 0.0000
vt 0.6759 0.8461 0.0000
vt 0.6704 0.8514 0.0000
vt 0.9612 0.8514 0.0000
vt 0.3934 0.0058 0.0000
vt 0.3934 0.4802 0.0000
vt 0.3638 0.4802 0.0000
vt 0.3638 0.0058 0.0000
vt 0.9257 0.4644 0.0000
vt 0.9173 0.4727 0.0000
vt 0.9173 0.0155 0.0000
vt 0.9257 0.0238 0.0000
vt 0.8911 0.4762 0.0000
vt 0.8911 0.0124 0.0000
vt 0.8965 0.0071 0.0000
vt 0.8965 0.4816 0.0000
vt 0.8865 0.4730 0.0000
vt 0.8865 0.0157 0.0000
vt 0.8523 0.0433 0.0000
vt 0.8523 0.4453 0.0000
vt 0.6573 0.7804 0.0000
vt 0.6644 0.7719 0.0000
vt 0.9663 0.7719 0.0000
vt 0.9735 0.7804 0.0000
vt 0.6403 0.7988 0.0000
vt 0.6457 0.7934 0.0000
vt 0.9851 0.7934 0.0000
vt 0.9904 0.7988 0.0000
vt 0.6489 0.7888 0.0000
vt 0.9818 0.7888 0.0000
vt 0.7031 0.7260 0.0000
vt 0.7031 0.7202 0.0000
vt 0.9277 0.7202 0.0000
vt 0.9277 0.7260 0.0000
vt 0.9127 0.4760 0.0000
vt 0.9073 0.4813 0.0000
vt 0.9073 0.0069 0.0000
vt 0.9127 0.0122 0.0000
vt 0.9329 0.7312 0.0000
vt 0.6979 0.7312 0.0000
vt 0.4354 0.0423 0.0000
vt 0.7855 0.0423 0.0000
vt 0.7855 0.0719 0.0000
vt 0.4354 0.0719 0.0000
vt 0.9542 0.7547 0.0000
vt 0.6766 0.7547 0.0000
vt 0.6968 0.7345 0.0000
vt 0.9340 0.7345 0.0000
vt 0.9860 0.0696 0.0000
vt 0.9860 0.4186 0.0000
vt 0.6755 0.7581 0.0000
vt 0.9553 0.7581 0.0000
vt 0.9608 0.7634 0.0000
vt 0.6700 0.7634 0.0000
vt 0.3579 0.0062 0.0000
vt 0.3579 0.4806 0.0000
vt 0.0078 0.4806 0.0000
vt 0.0078 0.0062 0.0000
# 120 texture coords

o Marco
g Marco
usemtl 02___Default
s 2
f 5/5/2 6/6/3 7/7/4 8/8/5 
f 9/9/6 10/10/7 11/11/8 12/12/6 
f 7/7/4 6/6/3 13/13/9 14/14/10 
f 15/15/11 16/16/11 17/17/12 18/18/12 
s 1
f 19/19/13 20/20/13 21/21/14 14/22/14 
f 22/23/15 23/24/15 24/25/16 25/26/16 
f 25/26/16 24/25/16 26/27/17 27/28/17 
f 27/28/17 26/27/17 20/20/13 19/19/13 
f 16/29/18 28/30/18 29/31/19 17/32/19 
s 8
f 30/33/20 31/34/20 32/35/20 22/36/20 
s 2
f 13/13/9 33/37/21 19/38/21 14/14/10 
s 4
f 34/39/15 18/40/15 17/41/15 29/42/15 
s 2
f 35/43/22 36/44/23 37/45/24 38/46/25 
f 39/47/26 40/48/27 41/49/28 42/50/28 
s 1
f 16/29/18 12/51/29 42/52/29 28/30/18 
s 4
f 22/53/30 32/54/30 43/55/30 23/56/30 
s 1
f 11/57/31 44/58/32 45/59/32 39/60/31 
f 12/51/29 11/57/31 39/60/31 42/52/29 
s 2
f 45/61/33 46/62/34 40/48/27 39/47/26 
f 47/63/35 28/64/35 42/50/28 41/49/28 
f 48/65/36 38/46/25 37/45/24 21/66/37 
s 1
f 8/67/38 36/68/38 45/59/32 44/58/32 
f 37/69/39 36/68/38 8/67/38 7/70/39 
f 21/21/14 37/69/39 7/70/39 14/22/14 
s 8
f 49/71/12 23/72/12 43/73/12 50/74/12 
s 2
f 20/75/40 26/76/41 51/77/41 52/78/40 
f 46/62/34 45/61/33 36/44/23 35/43/22 
f 25/79/42 53/80/42 30/81/15 22/82/15 
f 25/79/42 27/83/43 54/84/43 53/80/42 
f 55/85/44 44/86/45 11/11/8 10/10/7 
f 16/16/11 15/15/11 9/9/6 12/12/6 
s 1
f 33/87/46 13/88/47 48/89/47 52/90/46 
f 30/91/15 53/92/48 56/93/48 49/94/15 
f 53/92/48 54/95/49 51/96/49 56/93/48 
f 54/95/49 33/87/46 52/90/46 51/96/49 
f 15/97/50 18/98/30 34/99/30 47/100/50 
s 2
f 19/38/21 33/37/21 54/84/43 27/83/43 
f 55/85/44 5/5/2 8/8/5 44/86/45 
f 24/101/51 23/102/15 49/103/15 56/104/51 
f 26/76/41 24/101/51 56/104/51 51/77/41 
s 1
f 41/105/52 9/106/52 15/97/50 47/100/50 
s 4
f 50/107/19 31/108/19 30/109/19 49/110/19 
s 1
f 46/111/53 55/112/53 10/113/54 40/114/54 
f 40/114/54 10/113/54 9/106/52 41/105/52 
s 2
f 28/64/35 47/63/35 34/115/20 29/116/20 
s 1
f 5/117/55 55/112/53 46/111/53 35/118/55 
f 38/119/56 6/120/56 5/117/55 35/118/55 
f 48/89/47 13/88/47 6/120/56 38/119/56 
s 2
f 48/65/36 21/66/37 20/75/40 52/78/40 
s 1
f 50/121/57 43/122/57 32/123/57 31/124/57 
# 50 polygons

