# 3ds Max Wavefront OBJ Exporter v0.99 - (c)2007 guruware
# File Created: 30.04.2025 10:59:10

mtllib alaIzquierda.mtl

#
# object Ala_izquierda
#

v  0.0462 -0.0062 -0.0046
v  0.0448 -0.0065 0.0084
v  0.0348 -0.0054 -0.0042
v  0.0348 -0.0058 0.0073
v  0.0349 -0.0045 -0.0174
v  0.0447 -0.0055 -0.0191
v  0.0268 -0.0049 -0.0036
v  0.0269 -0.0050 0.0062
v  0.0269 -0.0038 -0.0148
v  0.0352 -0.0014 -0.0218
v  0.0450 -0.0026 -0.0231
v  0.0271 -0.0007 -0.0186
v  0.0451 -0.0032 0.0136
v  0.0353 -0.0021 0.0127
v  0.0271 -0.0014 0.0110
v  0.0542 -0.0078 -0.0126
v  0.0520 -0.0067 -0.0203
v  0.0525 -0.0036 -0.0228
v  0.0536 -0.0079 -0.0048
v  0.0595 -0.0072 -0.0197
v  0.0577 -0.0047 -0.0212
v  0.0610 -0.0076 -0.0151
v  0.0641 -0.0082 -0.0051
v  0.0639 -0.0079 -0.0107
v  0.0744 -0.0056 -0.0050
v  0.0726 -0.0052 -0.0098
v  0.0639 -0.0054 -0.0179
v  0.0696 -0.0050 -0.0139
v  0.0703 -0.0049 -0.0120
v  0.0622 -0.0071 -0.0129
v  0.0642 -0.0081 -0.0005
v  0.0728 -0.0056 -0.0006
v  0.0708 -0.0053 0.0014
v  0.0631 -0.0075 0.0014
v  0.0704 -0.0055 0.0035
v  0.0626 -0.0080 0.0036
v  0.0661 -0.0059 0.0073
v  0.0622 -0.0078 0.0080
v  0.0545 -0.0081 0.0020
v  0.0528 -0.0073 0.0092
v  0.0537 -0.0041 0.0127
v  0.0611 -0.0054 0.0102
v  0.0083 -0.0030 -0.0022
v  0.0084 -0.0028 0.0031
v  0.0044 -0.0028 -0.0020
v  0.0043 -0.0025 0.0020
v  0.0042 -0.0024 -0.0062
v  0.0083 -0.0025 -0.0079
v  0.0040 -0.0007 -0.0074
v  0.0083 -0.0003 -0.0099
v  0.0084 -0.0006 0.0055
v  0.0041 -0.0007 0.0034
v  0.0023 -0.0008 -0.0055
v  0.0018 -0.0008 -0.0021
v  0.0022 -0.0009 0.0012
v  0.0174 -0.0039 0.0046
v  0.0173 -0.0040 -0.0030
v  0.0173 -0.0031 -0.0115
v  0.0174 -0.0003 -0.0146
v  0.0175 -0.0008 0.0084
v  0.0083 0.0018 0.0034
v  0.0082 0.0033 -0.0021
v  0.0039 0.0013 0.0021
v  0.0036 0.0025 -0.0019
v  0.0083 0.0024 -0.0077
v  0.0038 0.0015 -0.0060
v  0.0175 0.0031 -0.0109
v  0.0273 0.0031 -0.0137
v  0.0357 0.0026 -0.0159
v  0.0273 0.0041 -0.0030
v  0.0359 0.0037 -0.0034
v  0.0272 0.0020 0.0073
v  0.0356 0.0014 0.0087
v  0.0473 0.0027 -0.0040
v  0.0455 0.0004 0.0101
v  0.0456 0.0015 -0.0177
v  0.0555 0.0009 0.0031
v  0.0535 -0.0005 0.0108
v  0.0528 0.0004 -0.0189
v  0.0553 0.0014 -0.0114
v  0.0548 0.0015 -0.0044
v  0.0631 -0.0016 0.0048
v  0.0597 -0.0025 0.0093
v  0.0575 -0.0015 -0.0185
v  0.0620 -0.0008 -0.0135
v  0.0648 -0.0010 -0.0096
v  0.0649 -0.0011 -0.0046
v  0.0636 -0.0019 0.0026
v  0.0649 -0.0014 0.0006
v  0.0630 -0.0017 -0.0115
v  0.0175 0.0041 -0.0026
v  0.0175 0.0022 0.0054
# 92 vertices

vn -0.1190 -0.9922 -0.0361
vn -0.1124 -0.9761 0.1860
vn -0.0815 -0.9955 -0.0483
vn -0.1050 -0.9777 0.1817
vn -0.1346 -0.9663 -0.2194
vn -0.1520 -0.9665 -0.2069
vn -0.0952 -0.9940 -0.0545
vn -0.1361 -0.9629 0.2330
vn -0.1594 -0.9513 -0.2640
vn -0.1970 0.2267 -0.9538
vn -0.0817 0.2113 -0.9740
vn -0.3279 0.1949 -0.9244
vn -0.0702 -0.2109 0.9750
vn -0.1506 -0.1760 0.9728
vn -0.2208 -0.1284 0.9668
vn -0.1273 -0.9905 -0.0520
vn -0.1442 -0.9516 -0.2714
vn 0.0901 0.1748 -0.9805
vn -0.0878 -0.9960 -0.0167
vn 0.1066 -0.9300 -0.3518
vn 0.3059 0.0760 -0.9490
vn 0.1455 -0.9788 -0.1444
vn 0.1060 -0.9940 -0.0277
vn 0.1298 -0.9805 -0.1476
vn 0.9921 -0.1242 -0.0176
vn 0.9156 -0.1770 -0.3610
vn 0.6356 0.1422 -0.7588
vn 0.8549 0.1551 -0.4951
vn 0.7326 -0.0234 -0.6802
vn 0.2139 -0.9620 -0.1695
vn 0.1232 -0.9881 0.0926
vn 0.9448 -0.0380 0.3253
vn 0.8088 -0.1186 0.5760
vn 0.2116 -0.9717 0.1054
vn 0.9330 -0.0438 0.3572
vn 0.1264 -0.9902 0.0591
vn 0.7175 -0.0490 0.6948
vn 0.1080 -0.9467 0.3035
vn -0.1014 -0.9947 0.0140
vn -0.0885 -0.9590 0.2693
vn 0.1062 -0.2359 0.9660
vn 0.2592 -0.3427 0.9030
vn -0.1004 -0.9943 -0.0364
vn -0.1630 -0.9452 0.2829
vn -0.2686 -0.9631 -0.0168
vn -0.2905 -0.9178 0.2706
vn -0.2861 -0.9178 -0.2753
vn -0.1818 -0.9387 -0.2930
vn -0.5146 0.0283 -0.8569
vn -0.4371 0.0729 -0.8964
vn -0.3096 -0.0679 0.9484
vn -0.4452 -0.0559 0.8937
vn -0.9667 -0.1499 -0.2075
vn -0.9945 -0.1052 -0.0004
vn -0.9687 -0.1300 0.2113
vn -0.1536 -0.9542 0.2566
vn -0.1089 -0.9928 -0.0497
vn -0.1788 -0.9407 -0.2883
vn -0.3794 0.1257 -0.9166
vn -0.2642 -0.1047 0.9588
vn -0.1540 0.8915 0.4260
vn -0.1243 0.9909 0.0509
vn -0.4213 0.8093 0.4093
vn -0.4529 0.8909 0.0345
vn -0.2183 0.9053 -0.3643
vn -0.4780 0.7989 -0.3650
vn -0.1320 0.9331 -0.3346
vn -0.0575 0.9534 -0.2962
vn 0.0277 0.9631 -0.2679
vn 0.0160 0.9985 0.0520
vn 0.0713 0.9963 0.0482
vn -0.0152 0.9297 0.3679
vn 0.0449 0.9411 0.3352
vn 0.0915 0.9951 0.0383
vn 0.0689 0.9352 0.3473
vn 0.0724 0.9560 -0.2842
vn 0.1638 0.9721 0.1679
vn 0.1484 0.8921 0.4267
vn 0.1505 0.9215 -0.3580
vn 0.1713 0.9785 -0.1149
vn 0.2171 0.9757 0.0283
vn 0.4188 0.8321 0.3637
vn 0.3611 0.7649 0.5334
vn 0.3493 0.8020 -0.4846
vn 0.3943 0.8406 -0.3713
vn 0.3461 0.9308 -0.1173
vn 0.3397 0.9401 0.0274
vn 0.4207 0.8826 0.2099
vn 0.3525 0.9244 0.1455
vn 0.4029 0.8812 -0.2473
vn -0.0465 0.9976 0.0509
vn -0.0786 0.9146 0.3966
# 92 vertex normals

vt 0.7114 0.0797 0.0000
vt 0.7132 0.1201 0.0000
vt 0.6792 0.0827 0.0000
vt 0.6799 0.1154 0.0000
vt 0.6781 0.0359 0.0000
vt 0.7112 0.0300 0.0000
vt 0.6611 0.0845 0.0000
vt 0.6621 0.1124 0.0000
vt 0.6602 0.0458 0.0000
vt 0.6769 0.0202 0.0000
vt 0.7104 0.0165 0.0000
vt 0.6576 0.0314 0.0000
vt 0.7128 0.1406 0.0000
vt 0.6800 0.1393 0.0000
vt 0.6602 0.1350 0.0000
vt 0.7339 0.0538 0.0000
vt 0.7284 0.0289 0.0000
vt 0.7293 0.0172 0.0000
vt 0.7342 0.0781 0.0000
vt 0.7457 0.0307 0.0000
vt 0.7573 0.0232 0.0000
vt 0.7527 0.0469 0.0000
vt 0.7589 0.0774 0.0000
vt 0.7581 0.0588 0.0000
vt 0.7873 0.0771 0.0000
vt 0.7868 0.0604 0.0000
vt 0.7851 0.0393 0.0000
vt 0.7865 0.0512 0.0000
vt 0.7867 0.0551 0.0000
vt 0.7532 0.0528 0.0000
vt 0.7592 0.0897 0.0000
vt 0.7877 0.0907 0.0000
vt 0.7879 0.0954 0.0000
vt 0.7561 0.0954 0.0000
vt 0.7882 0.0996 0.0000
vt 0.7574 0.1015 0.0000
vt 0.7883 0.1129 0.0000
vt 0.7560 0.1168 0.0000
vt 0.7345 0.0996 0.0000
vt 0.7306 0.1216 0.0000
vt 0.7339 0.1366 0.0000
vt 0.7739 0.1242 0.0000
vt 0.6031 0.0887 0.0000
vt 0.6043 0.1038 0.0000
vt 0.5972 0.0890 0.0000
vt 0.5964 0.1014 0.0000
vt 0.5955 0.0758 0.0000
vt 0.6026 0.0718 0.0000
vt 0.5911 0.0707 0.0000
vt 0.6011 0.0631 0.0000
vt 0.6032 0.1146 0.0000
vt 0.5931 0.1080 0.0000
vt 0.5849 0.0786 0.0000
vt 0.5828 0.0892 0.0000
vt 0.5847 0.0977 0.0000
vt 0.6337 0.1078 0.0000
vt 0.6325 0.0860 0.0000
vt 0.6317 0.0566 0.0000
vt 0.6293 0.0444 0.0000
vt 0.6317 0.1257 0.0000
vt 0.9718 0.0882 0.0000
vt 0.9696 0.0718 0.0000
vt 0.9807 0.0842 0.0000
vt 0.9778 0.0714 0.0000
vt 0.9697 0.0554 0.0000
vt 0.9791 0.0589 0.0000
vt 0.9719 0.0450 0.0000
vt 0.9833 0.0519 0.0000
vt 0.9844 0.0904 0.0000
vt 0.9738 0.0976 0.0000
vt 0.9934 0.0702 0.0000
vt 0.9924 0.0791 0.0000
vt 0.9902 0.0595 0.0000
vt 0.9397 0.0461 0.0000
vt 0.9402 0.0298 0.0000
vt 0.9117 0.0187 0.0000
vt 0.9111 0.0392 0.0000
vt 0.8910 0.0092 0.0000
vt 0.8908 0.0343 0.0000
vt 0.9133 0.0733 0.0000
vt 0.8932 0.0735 0.0000
vt 0.9160 0.1069 0.0000
vt 0.8964 0.1132 0.0000
vt 0.8613 0.0733 0.0000
vt 0.8643 0.1215 0.0000
vt 0.8578 0.0293 0.0000
vt 0.8570 0.0077 0.0000
vt 0.8983 0.1282 0.0000
vt 0.8659 0.1347 0.0000
vt 0.9176 0.1219 0.0000
vt 0.8408 0.0972 0.0000
vt 0.8476 0.1222 0.0000
vt 0.8380 0.0106 0.0000
vt 0.8420 0.0295 0.0000
vt 0.8437 0.1348 0.0000
vt 0.8378 0.0525 0.0000
vt 0.8395 0.0736 0.0000
vt 0.8190 0.1027 0.0000
vt 0.8220 0.1184 0.0000
vt 0.8033 0.1236 0.0000
vt 0.8242 0.0314 0.0000
vt 0.8189 0.0503 0.0000
vt 0.8105 0.0194 0.0000
vt 0.8145 0.0611 0.0000
vt 0.8152 0.0750 0.0000
vt 0.8197 0.0967 0.0000
vt 0.8163 0.0912 0.0000
vt 0.8186 0.0543 0.0000
vt 0.9412 0.0719 0.0000
vt 0.9435 0.0980 0.0000
vt 0.9454 0.1104 0.0000
# 111 texture coords

o Ala_izquierda
g Ala_izquierda
usemtl default
s 1
f 1/1/1 2/2/2 3/3/3 
f 2/2/2 4/4/4 3/3/3 
f 1/1/1 3/3/3 5/5/5 
f 6/6/6 1/1/1 5/5/5 
f 3/3/3 4/4/4 7/7/7 
f 4/4/4 8/8/8 7/7/7 
f 5/5/5 3/3/3 9/9/9 
f 3/3/3 7/7/7 9/9/9 
f 6/6/6 5/5/5 10/10/10 
f 11/11/11 6/6/6 10/10/10 
f 10/10/10 5/5/5 12/12/12 
f 5/5/5 9/9/9 12/12/12 
f 2/2/2 13/13/13 4/4/4 
f 13/13/13 14/14/14 4/4/4 
f 4/4/4 14/14/14 8/8/8 
f 14/14/14 15/15/15 8/8/8 
f 16/16/16 1/1/1 6/6/6 
f 17/17/17 16/16/16 6/6/6 
f 17/17/17 6/6/6 18/18/18 
f 6/6/6 11/11/11 18/18/18 
f 16/16/16 19/19/19 1/1/1 
f 20/20/20 17/17/17 18/18/18 
f 21/21/21 20/20/20 18/18/18 
f 20/20/20 22/22/22 17/17/17 
f 22/22/22 16/16/16 17/17/17 
f 23/23/23 19/19/19 16/16/16 
f 24/24/24 23/23/23 16/16/16 
f 23/23/23 24/24/24 25/25/25 
f 24/24/24 26/26/26 25/25/25 
f 22/22/22 20/20/20 27/27/27 
f 28/28/28 22/22/22 27/27/27 
f 21/21/21 27/27/27 20/20/20 
f 28/28/28 29/29/29 22/22/22 
f 29/29/29 30/30/30 22/22/22 
f 29/29/29 26/26/26 30/30/30 
f 26/26/26 24/24/24 30/30/30 
f 16/16/16 30/30/30 24/24/24 
f 16/16/16 22/22/22 30/30/30 
f 23/23/23 25/25/25 31/31/31 
f 23/23/23 31/31/31 19/19/19 
f 25/25/25 32/32/32 31/31/31 
f 31/31/31 32/32/32 33/33/33 
f 34/34/34 31/31/31 33/33/33 
f 34/34/34 33/33/33 35/35/35 
f 36/36/36 34/34/34 35/35/35 
f 35/35/35 37/37/37 36/36/36 
f 37/37/37 38/38/38 36/36/36 
f 36/36/36 38/38/38 39/39/39 
f 34/34/34 36/36/36 39/39/39 
f 34/34/34 39/39/39 31/31/31 
f 38/38/38 40/40/40 39/39/39 
f 39/39/39 40/40/40 2/2/2 
f 2/2/2 40/40/40 41/41/41 
f 40/40/40 38/38/38 41/41/41 
f 13/13/13 2/2/2 41/41/41 
f 1/1/1 39/39/39 2/2/2 
f 38/38/38 42/42/42 41/41/41 
f 42/42/42 38/38/38 37/37/37 
f 31/31/31 39/39/39 19/19/19 
f 19/19/19 39/39/39 1/1/1 
f 43/43/43 44/44/44 45/45/45 
f 44/44/44 46/46/46 45/45/45 
f 43/43/43 45/45/45 47/47/47 
f 48/48/48 43/43/43 47/47/47 
f 48/48/48 47/47/47 49/49/49 
f 50/50/50 48/48/48 49/49/49 
f 44/44/44 51/51/51 46/46/46 
f 51/51/51 52/52/52 46/46/46 
f 47/47/47 53/53/53 49/49/49 
f 45/45/45 54/54/54 47/47/47 
f 54/54/54 53/53/53 47/47/47 
f 46/46/46 55/55/55 45/45/45 
f 55/55/55 54/54/54 45/45/45 
f 52/52/52 55/55/55 46/46/46 
f 44/44/44 43/43/43 56/56/56 
f 51/51/51 44/44/44 56/56/56 
f 43/43/43 57/57/57 56/56/56 
f 56/56/56 57/57/57 8/8/8 
f 57/57/57 7/7/7 8/8/8 
f 57/57/57 58/58/58 7/7/7 
f 57/57/57 43/43/43 58/58/58 
f 43/43/43 48/48/48 58/58/58 
f 58/58/58 9/9/9 7/7/7 
f 58/58/58 59/59/59 9/9/9 
f 58/58/58 48/48/48 59/59/59 
f 48/48/48 50/50/50 59/59/59 
f 59/59/59 12/12/12 9/9/9 
f 56/56/56 8/8/8 15/15/15 
f 60/60/60 56/56/56 15/15/15 
f 60/60/60 51/51/51 56/56/56 
f 61/61/61 62/62/62 63/63/63 
f 62/62/62 64/64/64 63/63/63 
f 62/62/62 65/65/65 64/64/64 
f 65/65/65 66/66/66 64/64/64 
f 65/65/65 50/67/50 66/66/66 
f 50/67/50 49/68/49 66/66/66 
f 61/61/61 63/63/63 52/69/52 
f 51/70/51 61/61/61 52/69/52 
f 63/63/63 64/64/64 54/71/54 
f 55/72/55 63/63/63 54/71/54 
f 63/63/63 55/72/55 52/69/52 
f 66/66/66 53/73/53 64/64/64 
f 53/73/53 54/71/54 64/64/64 
f 49/68/49 53/73/53 66/66/66 
f 50/67/50 65/65/65 67/74/67 
f 59/75/59 50/67/50 67/74/67 
f 59/75/59 67/74/67 12/76/12 
f 67/74/67 68/77/68 12/76/12 
f 10/78/10 12/76/12 68/77/68 
f 69/79/69 10/78/10 68/77/68 
f 69/79/69 68/77/68 70/80/70 
f 71/81/71 69/79/69 70/80/70 
f 71/81/71 70/80/70 72/82/72 
f 73/83/73 71/81/71 72/82/72 
f 74/84/74 71/81/71 73/83/73 
f 75/85/75 74/84/74 73/83/73 
f 74/84/74 76/86/76 71/81/71 
f 76/86/76 69/79/69 71/81/71 
f 76/86/76 11/87/11 69/79/69 
f 11/87/11 10/78/10 69/79/69 
f 75/85/75 73/83/73 14/88/14 
f 13/89/13 75/85/75 14/88/14 
f 14/88/14 73/83/73 15/90/15 
f 73/83/73 72/82/72 15/90/15 
f 77/91/77 74/84/74 75/85/75 
f 78/92/78 77/91/77 75/85/75 
f 11/87/11 76/86/76 18/93/18 
f 76/86/76 79/94/79 18/93/18 
f 78/92/78 75/85/75 41/95/41 
f 75/85/75 13/89/13 41/95/41 
f 74/84/74 80/96/80 76/86/76 
f 80/96/80 79/94/79 76/86/76 
f 81/97/81 80/96/80 74/84/74 
f 77/91/77 81/97/81 74/84/74 
f 82/98/82 77/91/77 78/92/78 
f 83/99/83 82/98/82 78/92/78 
f 83/99/83 78/92/78 41/95/41 
f 42/100/42 83/99/83 41/95/41 
f 42/100/42 37/37/37 83/99/83 
f 83/99/83 37/37/37 82/98/82 
f 84/101/84 79/94/79 80/96/80 
f 79/94/79 84/101/84 18/93/18 
f 85/102/85 84/101/84 80/96/80 
f 84/101/84 85/102/85 27/27/27 
f 85/102/85 28/28/28 27/27/27 
f 84/101/84 21/103/21 18/93/18 
f 21/103/21 84/101/84 27/27/27 
f 86/104/86 80/96/80 81/97/81 
f 87/105/87 86/104/86 81/97/81 
f 87/105/87 25/25/25 86/104/86 
f 25/25/25 26/26/26 86/104/86 
f 37/37/37 35/35/35 82/98/82 
f 35/35/35 33/33/33 82/98/82 
f 33/33/33 88/106/88 82/98/82 
f 33/33/33 32/32/32 88/106/88 
f 32/32/32 89/107/89 88/106/88 
f 87/105/87 89/107/89 25/25/25 
f 89/107/89 32/32/32 25/25/25 
f 85/102/85 90/108/90 28/28/28 
f 90/108/90 29/29/29 28/28/28 
f 90/108/90 86/104/86 29/29/29 
f 86/104/86 26/26/26 29/29/29 
f 80/96/80 90/108/90 85/102/85 
f 80/96/80 86/104/86 90/108/90 
f 77/91/77 88/106/88 89/107/89 
f 89/107/89 87/105/87 77/91/77 
f 87/105/87 81/97/81 77/91/77 
f 77/91/77 82/98/82 88/106/88 
f 91/109/91 92/110/92 70/80/70 
f 92/110/92 72/82/72 70/80/70 
f 91/109/91 70/80/70 68/77/68 
f 67/74/67 91/109/91 68/77/68 
f 92/110/92 60/111/60 72/82/72 
f 60/111/60 15/90/15 72/82/72 
f 67/74/67 65/65/65 91/109/91 
f 65/65/65 62/62/62 91/109/91 
f 91/109/91 62/62/62 92/110/92 
f 62/62/62 61/61/61 92/110/92 
f 92/110/92 61/61/61 60/111/60 
f 61/61/61 51/70/51 60/111/60 
# 0 polygons - 180 triangles

