# 3ds Max Wavefront OBJ Exporter v0.99 - (c)2007 guruware
# Fichier créé: 18.04.2025 12:52:50

mtllib arbol1.mtl

#
# object Copa1
#

v  -0.0697 4.2209 -0.0105
v  -0.7030 4.6007 1.2225
v  -1.5265 4.6007 -0.1353
v  -1.1472 5.6268 2.0872
v  0.3624 5.4271 2.1093
v  -0.3367 4.6008 -1.3206
v  1.2221 4.6007 -0.6954
v  0.9957 4.6007 0.8763
v  -0.4360 6.7642 2.5327
v  -2.5481 5.6268 -0.2228
v  -2.1598 5.4271 1.0978
v  -2.8183 6.7642 0.5497
v  -0.5239 5.6268 -2.2394
v  -1.7935 5.4271 -1.4454
v  -1.4020 6.7642 -2.2075
v  2.1281 5.6268 -1.1758
v  0.9551 5.4271 -2.0056
v  1.8555 6.7642 -1.9285
v  1.7429 5.6268 1.4983
v  2.2875 5.4271 0.1914
v  2.4525 6.7642 1.0011
v  -1.9948 6.7642 1.9075
v  -2.5919 6.7642 -1.0221
v  0.2967 6.7642 -2.5537
v  2.6789 6.7642 -0.5707
v  1.2627 6.7642 2.1865
v  -2.2674 7.9016 1.1548
v  -1.0944 8.1013 1.9846
v  -1.3614 8.9276 0.6744
v  -1.8822 7.9016 -1.5193
v  -2.4268 8.1013 -0.2124
v  -1.1350 8.9276 -0.8973
v  1.0078 7.9016 -2.1082
v  -0.5017 8.1013 -2.1303
v  0.5637 8.9276 -1.2435
v  2.4088 7.9016 0.2018
v  2.0205 8.1013 -1.1188
v  1.3871 8.9276 0.1143
v  0.3846 7.9016 2.2184
v  1.6542 8.1013 1.4244
v  0.1973 8.9276 1.2996
v  -0.0697 9.3074 -0.0105
# 42 vertices

vn -0.2618 -0.9520 0.1588
vn -0.0989 -0.6660 0.7394
vn -0.2273 -0.9467 -0.2281
vn 0.1199 -0.9467 -0.2989
vn 0.3031 -0.9520 0.0437
vn -0.0578 -0.3325 0.9413
vn -0.9083 -0.3601 0.2127
vn -0.4617 -0.3333 -0.8220
vn 0.5802 -0.3482 -0.7363
vn 0.8446 -0.3498 0.4054
vn -0.3691 -0.1296 0.9203
vn -0.9805 -0.1369 -0.1412
vn -0.1981 -0.1256 -0.9721
vn 0.8470 -0.1369 -0.5137
vn 0.6998 -0.1296 0.7025
vn -0.4943 0.6863 0.5336
vn -0.6316 0.6827 -0.3675
vn 0.0989 0.6660 -0.7394
vn 0.7092 0.6974 -0.1031
vn 0.3187 0.6639 0.6765
vn 0.2273 0.9467 0.2281
vn 0.4199 0.8038 0.4214
vn 0.6637 0.6863 0.2976
vn 0.2618 0.9520 -0.1588
vn 0.4902 0.8193 -0.2973
vn 0.4374 0.6827 -0.5854
vn -0.0662 0.9435 -0.3246
vn -0.1212 0.7947 -0.5948
vn -0.3804 0.6660 -0.6417
vn -0.3031 0.9520 -0.0437
vn -0.5675 0.8193 -0.0817
vn -0.6930 0.6974 0.1827
vn -0.1199 0.9467 0.2989
vn -0.2214 0.8038 0.5521
vn -0.0285 0.6639 0.7472
vn 0.4617 0.3333 0.8220
vn 0.6925 0.1934 0.6951
vn 0.8221 0.3482 0.4505
vn 0.9083 0.3601 -0.2127
vn 0.8370 0.2041 -0.5076
vn 0.6185 0.3498 -0.7036
vn 0.0578 0.3325 -0.9413
vn -0.1962 0.1876 -0.9625
vn -0.4215 0.3325 -0.8437
vn -0.8446 0.3498 -0.4054
vn -0.9689 0.2041 -0.1396
vn -0.9191 0.3601 0.1598
vn -0.5802 0.3482 0.7363
vn -0.3652 0.1934 0.9106
vn -0.1032 0.3333 0.9371
vn 0.9805 0.1369 0.1412
vn 0.9689 -0.2041 0.1396
vn 0.9191 -0.3601 -0.1598
vn 0.3691 0.1296 -0.9203
vn 0.3652 -0.1934 -0.9106
vn 0.1032 -0.3333 -0.9371
vn -0.6998 0.1296 -0.7025
vn -0.6925 -0.1934 -0.6951
vn -0.8221 -0.3482 -0.4505
vn -0.8470 0.1369 0.5137
vn -0.8370 -0.2041 0.5076
vn -0.6185 -0.3498 0.7036
vn 0.1981 0.1256 0.9721
vn 0.1962 -0.1876 0.9625
vn 0.4215 -0.3325 0.8437
vn 0.6316 -0.6827 0.3675
vn 0.5675 -0.8193 0.0817
vn 0.6930 -0.6974 -0.1827
vn 0.4943 -0.6863 -0.5336
vn 0.2214 -0.8038 -0.5521
vn 0.0285 -0.6639 -0.7472
vn -0.3187 -0.6639 -0.6765
vn -0.4199 -0.8038 -0.4214
vn -0.6637 -0.6863 -0.2976
vn 0.3804 -0.6660 0.6417
vn 0.1212 -0.7947 0.5948
vn 0.0662 -0.9435 0.3246
vn -0.7092 -0.6974 0.1031
vn -0.4902 -0.8193 0.2973
vn -0.4374 -0.6827 0.5854
# 80 vertex normals

vt 0.8182 0.0000 0.0000
vt 0.7727 0.0787 0.0000
vt 0.8636 0.0787 0.0000
vt 0.7273 0.1575 0.0000
vt 0.6818 0.0787 0.0000
vt 0.6364 0.1575 0.0000
vt 0.0909 0.0000 0.0000
vt 0.0455 0.0787 0.0000
vt 0.1364 0.0787 0.0000
vt 0.2727 0.0000 0.0000
vt 0.2273 0.0787 0.0000
vt 0.3182 0.0787 0.0000
vt 0.4545 0.0000 0.0000
vt 0.4091 0.0787 0.0000
vt 0.5000 0.0787 0.0000
vt 0.6818 0.2362 0.0000
vt 0.9091 0.1575 0.0000
vt 0.8182 0.1575 0.0000
vt 0.8636 0.2362 0.0000
vt 0.1818 0.1575 0.0000
vt 0.0909 0.1575 0.0000
vt 0.1364 0.2362 0.0000
vt 0.3636 0.1575 0.0000
vt 0.2727 0.1575 0.0000
vt 0.3182 0.2362 0.0000
vt 0.5455 0.1575 0.0000
vt 0.4545 0.1575 0.0000
vt 0.5000 0.2362 0.0000
vt 0.7727 0.2362 0.0000
vt 0.9545 0.2362 0.0000
vt 0.2273 0.2362 0.0000
vt 0.4091 0.2362 0.0000
vt 0.5909 0.2362 0.0000
vt 0.8182 0.3149 0.0000
vt 0.7273 0.3149 0.0000
vt 0.7727 0.3937 0.0000
vt 1.0000 0.3149 0.0000
vt 0.9091 0.3149 0.0000
vt 0.9545 0.3937 0.0000
vt 0.2727 0.3149 0.0000
vt 0.1818 0.3149 0.0000
vt 0.2273 0.3937 0.0000
vt 0.4545 0.3149 0.0000
vt 0.3636 0.3149 0.0000
vt 0.4091 0.3937 0.0000
vt 0.6364 0.3149 0.0000
vt 0.5455 0.3149 0.0000
vt 0.5909 0.3937 0.0000
vt 0.5000 0.3937 0.0000
vt 0.5455 0.4724 0.0000
vt 0.3182 0.3937 0.0000
vt 0.3636 0.4724 0.0000
vt 0.1364 0.3937 0.0000
vt 0.1818 0.4724 0.0000
vt 0.0909 0.3149 0.0000
vt 0.8636 0.3937 0.0000
vt 0.9091 0.4724 0.0000
vt 0.6818 0.3937 0.0000
vt 0.7273 0.4724 0.0000
vt 0.0455 0.2362 0.0000
vt 0.0000 0.1575 0.0000
vt 0.5909 0.0787 0.0000
vt 0.6364 0.0000 0.0000
# 63 texture coords

o Copa1
g Copa1
usemtl 4_Cylinder_mso
s off
f 1/1/1 2/2/1 3/3/1 
f 4/4/2 2/5/2 5/6/2 
f 1/7/3 3/8/3 6/9/3 
f 1/10/4 6/11/4 7/12/4 
f 1/13/5 7/14/5 8/15/5 
f 4/4/6 5/6/6 9/16/6 
f 10/17/7 11/18/7 12/19/7 
f 13/20/8 14/21/8 15/22/8 
f 16/23/9 17/24/9 18/25/9 
f 19/26/10 20/27/10 21/28/10 
f 4/4/11 9/16/11 22/29/11 
f 10/17/12 12/19/12 23/30/12 
f 13/20/13 15/22/13 24/31/13 
f 16/23/14 18/25/14 25/32/14 
f 19/26/15 21/28/15 26/33/15 
f 27/34/16 28/35/16 29/36/16 
f 30/37/17 31/38/17 32/39/17 
f 33/40/18 34/41/18 35/42/18 
f 36/43/19 37/44/19 38/45/19 
f 39/46/20 40/47/20 41/48/20 
f 41/48/21 38/49/21 42/50/21 
f 41/48/22 40/47/22 38/49/22 
f 40/47/23 36/43/23 38/49/23 
f 38/45/24 35/51/24 42/52/24 
f 38/45/25 37/44/25 35/51/25 
f 37/44/26 33/40/26 35/51/26 
f 35/42/27 32/53/27 42/54/27 
f 35/42/28 34/41/28 32/53/28 
f 34/41/29 30/55/29 32/53/29 
f 32/39/30 29/56/30 42/57/30 
f 32/39/31 31/38/31 29/56/31 
f 31/38/32 27/34/32 29/56/32 
f 29/36/33 41/58/33 42/59/33 
f 29/36/34 28/35/34 41/58/34 
f 28/35/35 39/46/35 41/58/35 
f 26/33/36 40/47/36 39/46/36 
f 26/33/37 21/28/37 40/47/37 
f 21/28/38 36/43/38 40/47/38 
f 25/32/39 37/44/39 36/43/39 
f 25/32/40 18/25/40 37/44/40 
f 18/25/41 33/40/41 37/44/41 
f 24/31/42 34/41/42 33/40/42 
f 24/31/43 15/22/43 34/41/43 
f 15/22/44 30/55/44 34/41/44 
f 23/30/45 31/38/45 30/37/45 
f 23/30/46 12/19/46 31/38/46 
f 12/19/47 27/34/47 31/38/47 
f 22/29/48 28/35/48 27/34/48 
f 22/29/49 9/16/49 28/35/49 
f 9/16/50 39/46/50 28/35/50 
f 21/28/51 25/32/51 36/43/51 
f 21/28/52 20/27/52 25/32/52 
f 20/27/53 16/23/53 25/32/53 
f 18/25/54 24/31/54 33/40/54 
f 18/25/55 17/24/55 24/31/55 
f 17/24/56 13/20/56 24/31/56 
f 15/22/57 23/60/57 30/55/57 
f 15/22/58 14/21/58 23/60/58 
f 14/21/59 10/61/59 23/60/59 
f 12/19/60 22/29/60 27/34/60 
f 12/19/61 11/18/61 22/29/61 
f 11/18/62 4/4/62 22/29/62 
f 9/16/63 26/33/63 39/46/63 
f 9/16/64 5/6/64 26/33/64 
f 5/6/65 19/26/65 26/33/65 
f 8/15/66 20/27/66 19/26/66 
f 8/15/67 7/14/67 20/27/67 
f 7/14/68 16/23/68 20/27/68 
f 7/12/69 17/24/69 16/23/69 
f 7/12/70 6/11/70 17/24/70 
f 6/11/71 13/20/71 17/24/71 
f 6/9/72 14/21/72 13/20/72 
f 6/9/73 3/8/73 14/21/73 
f 3/8/74 10/61/74 14/21/74 
f 5/6/75 8/62/75 19/26/75 
f 5/6/76 2/5/76 8/62/76 
f 2/5/77 1/63/77 8/62/77 
f 3/3/78 11/18/78 10/17/78 
f 3/3/79 2/2/79 11/18/79 
f 2/2/80 4/4/80 11/18/80 
# 0 polygons - 80 triangles

#
# object Tronco1
#

v  0.2711 -0.0157 -0.0800
v  0.0327 5.3053 -0.0314
v  0.0174 5.3053 0.0471
v  0.2204 -0.0157 0.1814
v  -0.0488 5.3053 0.0918
v  -0.0002 -0.0157 0.3303
v  -0.2615 -0.0157 0.2796
v  -0.1273 5.3053 0.0766
v  -0.1720 5.3053 0.0104
v  -0.4105 -0.0157 0.0590
v  -0.1568 5.3053 -0.0681
v  -0.3598 -0.0157 -0.2024
v  -0.0905 5.3053 -0.1128
v  -0.1391 -0.0157 -0.3513
v  -0.0121 5.3053 -0.0976
v  0.1222 -0.0157 -0.3006
v  -1.4216 5.0920 0.2184
v  -1.4443 5.0729 0.2103
v  -0.1267 3.5158 0.0549
v  -0.0513 3.5793 0.0818
v  -0.1710 3.4895 -0.0334
v  -1.4575 5.0650 0.1838
v  -1.4537 5.0729 0.1543
v  -0.1582 3.5158 -0.1314
v  -0.0958 3.5793 -0.1816
v  -1.4350 5.0920 0.1393
v  -1.4123 5.1110 0.1474
v  -0.0203 3.6428 -0.1547
v  0.0240 3.6691 -0.0664
v  -1.3990 5.1189 0.1739
v  -1.4029 5.1110 0.2033
v  0.0111 3.6428 0.0316
v  1.6804 5.4479 -0.1560
v  1.6497 5.4724 -0.1682
v  -0.1601 3.4353 0.1371
v  -0.0578 3.3537 0.1777
v  1.6333 5.4825 -0.2045
v  -0.2150 3.4691 0.0161
v  1.6407 5.4724 -0.2437
v  -0.1902 3.4353 -0.1144
v  1.6677 5.4479 -0.2628
v  -0.1003 3.3537 -0.1779
v  0.0021 3.2721 -0.1373
v  1.6984 5.4234 -0.2506
v  1.7149 5.4132 -0.2143
v  0.0569 3.2383 -0.0164
v  1.7074 5.4234 -0.1751
v  0.0321 3.2721 0.1141
# 48 vertices

vn 0.9808 0.0422 0.1903
vn 0.5590 0.0422 0.8281
vn -0.1903 0.0422 0.9808
vn -0.8281 0.0422 0.5590
vn -0.9808 0.0422 -0.1903
vn -0.5590 0.0422 -0.8281
vn 0.0000 1.0000 0.0000
vn 0.1903 0.0422 -0.9808
vn 0.8281 0.0422 -0.5590
vn 0.0000 -1.0000 0.0000
vn -0.1534 -0.2258 0.9620
vn -0.6381 -0.5894 0.4955
vn -0.7654 -0.5894 -0.2585
vn -0.4607 -0.2258 -0.8583
vn 0.0974 0.2883 -0.9526
vn 0.5821 0.6519 -0.4860
vn -0.6630 0.7402 0.1119
vn 0.7094 0.6519 0.2680
vn 0.4047 0.2883 0.8678
vn 0.6630 -0.7402 -0.1119
vn -0.1538 0.2787 0.9480
vn -0.6284 0.6273 0.4601
vn -0.7190 0.6273 -0.2992
vn -0.3726 0.2787 -0.8851
vn 0.2079 -0.2142 -0.9544
vn 0.6825 -0.5627 -0.4665
vn 0.6400 0.7646 -0.0764
vn 0.7731 -0.5627 0.2928
vn 0.4267 -0.2142 0.8787
vn -0.6400 -0.7645 0.0764
# 30 vertex normals

vt 1.0000 0.5000 0.0000
vt 1.0000 1.0000 0.0000
vt 0.8750 1.0000 0.0000
vt 0.8750 0.5000 0.0000
vt 0.7500 1.0000 0.0000
vt 0.7500 0.5000 0.0000
vt 0.6250 0.5000 0.0000
vt 0.6250 1.0000 0.0000
vt 0.5000 1.0000 0.0000
vt 0.5000 0.5000 0.0000
vt 0.3750 1.0000 0.0000
vt 0.3750 0.5000 0.0000
vt 0.2500 1.0000 0.0000
vt 0.2500 0.5000 0.0000
vt 0.4197 0.4197 0.0000
vt 0.2500 0.4900 0.0000
vt 0.0803 0.4197 0.0000
vt 0.4900 0.2500 0.0000
vt 0.4197 0.0803 0.0000
vt 0.0100 0.2500 0.0000
vt 0.2500 0.0100 0.0000
vt 0.0803 0.0803 0.0000
vt 0.1250 0.5000 0.0000
vt 0.1250 1.0000 0.0000
vt 0.0000 1.0000 0.0000
vt 0.0000 0.5000 0.0000
vt 0.5803 0.4197 0.0000
vt 0.7500 0.4900 0.0000
vt 0.9197 0.4197 0.0000
vt 0.5100 0.2500 0.0000
vt 0.5803 0.0803 0.0000
vt 0.7500 0.0100 0.0000
vt 0.9900 0.2500 0.0000
vt 0.9197 0.0803 0.0000
# 34 texture coords

o Tronco1
g Tronco1
usemtl 2_Cylinder_002_mso
s off
f 43/64/81 44/65/81 45/66/81 46/67/81 
f 45/66/82 47/68/82 48/69/82 46/67/82 
f 49/70/83 48/69/83 47/68/83 50/71/83 
f 50/71/84 51/72/84 52/73/84 49/70/84 
f 53/74/85 54/75/85 52/73/85 51/72/85 
f 53/74/86 55/76/86 56/77/86 54/75/86 
f 45/78/87 44/79/87 57/80/87 47/81/87 
f 50/82/87 47/81/87 57/80/87 55/83/87 
f 51/84/87 50/82/87 55/83/87 53/85/87 
f 58/86/88 56/77/88 55/76/88 57/87/88 
f 58/86/89 57/87/89 44/88/89 43/89/89 
f 58/90/90 43/91/90 46/92/90 56/93/90 
f 54/94/90 56/93/90 46/92/90 52/95/90 
f 46/92/90 48/96/90 49/97/90 52/95/90 
f 59/65/91 60/66/91 61/67/91 62/64/91 
f 63/69/92 61/67/92 60/66/92 64/68/92 
f 63/69/93 64/68/93 65/71/93 66/70/93 
f 67/73/94 66/70/94 65/71/94 68/72/94 
f 69/74/95 70/75/95 67/73/95 68/72/95 
f 71/77/96 70/75/96 69/74/96 72/76/96 
f 68/84/97 65/82/97 64/81/97 60/78/97 
f 60/78/97 59/79/97 73/80/97 68/84/97 
f 68/84/97 73/80/97 72/83/97 69/85/97 
f 71/77/98 72/76/98 73/87/98 74/86/98 
f 59/88/99 62/89/99 74/86/99 73/87/99 
f 66/97/100 67/95/100 70/94/100 74/90/100 
f 70/94/100 71/93/100 74/90/100 
f 74/90/100 62/91/100 61/92/100 66/97/100 
f 66/97/100 61/92/100 63/96/100 
f 75/65/101 76/66/101 77/67/101 78/64/101 
f 79/68/102 80/69/102 77/67/102 76/66/102 
f 81/71/103 82/70/103 80/69/103 79/68/103 
f 83/72/104 84/73/104 82/70/104 81/71/104 
f 85/75/105 84/73/105 83/72/105 86/74/105 
f 86/74/106 87/76/106 88/77/106 85/75/106 
f 81/82/107 79/81/107 76/78/107 83/84/107 
f 83/84/107 76/78/107 75/79/107 86/85/107 
f 87/83/107 86/85/107 75/79/107 89/80/107 
f 89/87/108 90/86/108 88/77/108 87/76/108 
f 89/87/109 75/88/109 78/89/109 90/86/109 
f 90/90/110 78/91/110 77/92/110 88/93/110 
f 88/93/110 77/92/110 80/96/110 82/97/110 
f 88/93/110 82/97/110 84/95/110 85/94/110 
# 41 polygons - 2 triangles

