# Blender 4.4.1
# www.blender.org
mtllib bate.mtl
o bat
v 0.020020 0.040665 -0.022140
v 0.029297 0.040995 -0.001635
v 0.020996 0.041316 0.018382
v 0.000000 0.041465 0.027658
v -0.020508 0.041324 0.018870
v -0.028809 0.040995 -0.001635
v -0.019531 0.040665 -0.022140
v 0.000000 0.040532 -0.030440
v 0.019043 -0.192564 0.020673
v 0.026367 -0.193350 0.002129
v 0.018066 -0.193648 -0.016424
v 0.000000 -0.193766 -0.023747
v -0.018066 -0.193648 -0.016424
v -0.026367 -0.192862 0.002121
v -0.019043 -0.192556 0.021161
v 0.000000 -0.192423 0.029461
v 0.041992 -0.211724 0.043933
v 0.058594 -0.212391 0.002434
v 0.041504 -0.213057 -0.039064
v 0.000000 -0.213331 -0.056152
v -0.041016 -0.213057 -0.039064
v -0.058594 -0.211902 0.002426
v -0.041992 -0.211228 0.044413
v 0.000000 -0.210938 0.062477
v 0.000000 -0.244570 -0.055162
v 0.041016 -0.244303 -0.038562
v 0.059082 -0.243637 0.002936
v 0.041992 -0.242482 0.044427
v 0.000000 -0.242192 0.062491
v -0.041992 -0.242474 0.044915
v -0.059082 -0.243148 0.002928
v -0.041016 -0.244303 -0.038562
v 0.000000 -0.257307 0.003156
v 0.052734 0.336375 -0.005891
v 0.036621 0.335787 -0.042507
v 0.038086 0.336963 0.030726
v 0.000488 0.336733 0.046845
v -0.051758 0.336375 -0.005891
v -0.036621 0.336474 0.030734
v -0.035645 0.335787 -0.042507
v 0.000000 0.335551 -0.057153
v 0.070801 0.805896 -0.083264
v -0.097656 0.807017 -0.013449
v -0.067871 0.804919 -0.083249
v 0.000977 0.804457 -0.112054
v 0.101074 0.808482 -0.013473
v 0.072266 0.810587 0.056815
v 0.001465 0.811065 0.086596
v -0.068848 0.809611 0.056831
v 0.084473 1.256278 -0.105636
v 0.121094 1.258123 -0.021182
v 0.086426 1.260463 0.063752
v 0.000000 1.261043 0.099880
v -0.120117 1.258123 -0.021182
v -0.084961 1.260471 0.064240
v -0.083984 1.256270 -0.106124
v 0.000000 1.255225 -0.140780
v 0.088867 1.406075 -0.113414
v 0.127441 1.408006 -0.023589
v 0.090820 1.410425 0.066227
v 0.000000 1.411037 0.104308
v -0.090332 1.410425 0.066227
v -0.127441 1.408494 -0.023597
v -0.089355 1.406563 -0.113422
v 0.000000 1.405487 -0.150030
v 0.081055 1.464795 -0.106055
v 0.115723 1.466592 -0.024530
v -0.081055 1.465275 -0.106551
v 0.000000 1.464254 -0.139742
v 0.082520 1.468390 0.056994
v 0.000000 1.469442 0.092138
v -0.082031 1.468885 0.057475
v -0.115723 1.467080 -0.024538
v 0.076660 1.511996 -0.025259
v 0.053223 1.510646 -0.078956
v 0.055176 1.513355 0.028925
v 0.000000 1.513731 0.052359
v -0.076660 1.511996 -0.025259
v -0.054688 1.513355 0.028925
v -0.053223 1.510638 -0.079444
v 0.000000 1.510293 -0.100926
v 0.000000 1.531525 -0.025573
vn 0.9982 -0.0435 0.0413
vn 0.7371 -0.0559 -0.6735
vn 0.7613 0.0259 -0.6479
vn 0.9924 0.0247 0.1206
vn -0.7312 -0.0556 0.6799
vn 0.0481 -0.0539 0.9974
vn -0.0506 -0.0296 0.9983
vn -0.6743 -0.0355 0.7376
vn 0.6726 -0.0323 0.7393
vn 0.6118 0.0351 0.7903
vn -0.6844 -0.0051 -0.7291
vn -0.7696 -0.0602 -0.6356
vn -0.9960 -0.0476 0.0756
vn -0.9978 0.0392 -0.0537
vn -0.0298 -0.0633 -0.9976
vn 0.1053 -0.0118 -0.9944
vn 0.6674 -0.0825 -0.7401
vn 0.0481 -0.0932 -0.9945
vn 0.9959 -0.0711 -0.0562
vn 0.9870 -0.0965 -0.1288
vn 0.6104 -0.1057 -0.7850
vn 0.7405 -0.0592 0.6695
vn 0.7855 -0.0850 0.6131
vn 0.1188 -0.0782 0.9898
vn -0.9889 -0.0727 -0.1295
vn -0.9904 -0.0892 0.1052
vn -0.6235 -0.0797 0.7777
vn -0.6104 -0.0835 -0.7877
vn -0.7771 -0.1006 -0.6213
vn -0.1145 -0.1074 -0.9876
vn -0.7689 0.0441 0.6378
vn -0.1047 0.0207 0.9943
vn 0.0016 0.9997 -0.0224
vn -0.4500 0.8174 -0.3597
vn -0.5584 0.8276 0.0568
vn -0.3401 0.8358 0.4311
vn 0.3436 0.8641 -0.3676
vn 0.0024 0.7828 -0.6222
vn 0.0023 0.3386 -0.9409
vn 0.6087 0.4857 -0.6273
vn -0.0300 0.4006 0.9158
vn -0.6583 0.4829 0.5775
vn -0.6678 0.4108 -0.6207
vn -0.9061 0.4222 0.0274
vn 0.0831 0.8385 0.5386
vn 0.6751 0.4313 0.5985
vn 0.5583 0.8228 -0.1059
vn 0.4536 0.8332 0.3163
vn 0.9054 0.4199 -0.0624
vn -0.0015 0.5265 -0.8502
vn -0.0008 -0.6220 -0.7830
vn -0.6255 0.4076 -0.6653
vn -0.0008 -0.9998 0.0175
vn 0.5575 -0.7008 -0.4450
vn -0.1032 -0.0611 -0.9928
vn -0.8070 -0.0595 -0.5875
vn -0.4292 -0.7995 -0.4201
vn 0.6345 0.4312 0.6415
vn -0.0851 0.4539 0.8870
vn 0.0800 -0.6899 0.7195
vn 0.4296 -0.7900 0.4374
vn -0.7137 -0.6967 -0.0719
vn -0.5603 -0.6085 0.5619
vn 0.1138 -0.0319 0.9930
vn 0.8233 -0.0443 0.5659
vn -0.9875 -0.0485 0.1499
vn -0.6125 -0.0456 0.7892
vn -0.8444 0.5333 0.0519
vn -0.5579 0.5989 0.5745
vn -0.7234 0.1302 0.6780
vn -0.5081 0.8609 -0.0274
vn 0.8437 0.5288 -0.0927
vn 0.5366 0.4766 -0.6964
vn 0.7023 0.1058 -0.7040
vn 0.5090 0.8603 -0.0286
vn 0.9806 -0.0556 -0.1882
vn 0.5911 -0.0697 -0.8036
vn 0.7162 -0.6934 0.0789
vn 0.9929 -0.0091 0.1189
vn 0.6086 0.0029 0.7935
vn 0.0046 0.3421 0.9396
vn -0.9857 -0.0127 -0.1683
vn -0.5863 -0.0242 -0.8097
vn 0.0020 0.3110 -0.9504
vn -0.4324 0.8502 -0.3003
vn 0.4384 0.8608 0.2586
vt 0.854614 -0.125549
vt 0.830750 -0.125549
vt 0.829407 -0.097961
vt 0.855286 -0.097961
vt 0.984314 -0.995483
vt 0.984314 -0.013062
vt 0.878479 -0.125549
vt 0.878479 -0.097961
vt 0.806885 -0.125549
vt 0.806885 -0.097961
vt 0.011108 -0.013062
vt 0.333618 -0.013062
vt 0.333618 -0.995483
vt 0.011108 -0.995483
vt 0.878784 -0.926392
vt 0.920654 -0.926392
vt 0.920654 -0.932434
vt 0.878784 -0.932434
vt 0.962463 -0.926392
vt 0.962463 -0.932434
vt 0.836975 -0.926392
vt 0.836975 -0.932434
vt 0.666321 -0.995483
vt 0.666321 -0.013062
vt 0.993774 -0.995911
s 1
usemtl material_0.002
f 51/1/1 50/2/2 58/3/3
f 58/3/3 59/4/4 51/1/1
f 49/5/5 48/5/6 53/6/7
f 53/6/7 55/6/8 49/5/5
f 52/7/9 51/1/1 59/4/4
f 59/4/4 60/8/10 52/7/9
f 64/3/11 56/2/12 54/1/13
f 54/1/13 63/4/14 64/3/11
f 57/9/15 56/2/12 64/3/11
f 64/3/11 65/10/16 57/9/15
f 57/11/15 50/12/2 42/13/17
f 42/13/17 45/14/18 57/11/15
f 42/15/17 46/16/19 34/17/20
f 34/17/20 35/18/21 42/15/17
f 46/16/19 47/19/22 36/20/23
f 36/20/23 34/17/20 46/16/19
f 47/19/22 48/19/6 37/20/24
f 37/20/24 36/20/23 47/19/22
f 49/19/5 43/16/25 38/17/26
f 38/17/26 39/20/27 49/19/5
f 43/16/25 44/15/28 40/18/29
f 40/18/29 38/17/26 43/16/25
f 44/15/28 45/21/18 41/22/30
f 41/22/30 40/18/29 44/15/28
f 54/1/13 55/7/8 62/8/31
f 62/8/31 63/4/14 54/1/13
f 53/7/7 52/7/9 60/8/10
f 60/8/10 61/8/32 53/7/7
f 48/5/6 47/5/22 52/6/9
f 52/6/9 53/6/7 48/5/6
f 45/21/18 42/15/17 35/18/21
f 35/18/21 41/22/30 45/21/18
f 39/20/27 37/20/24 48/19/6
f 48/19/6 49/19/5 39/20/27
f 50/2/2 57/9/15 65/10/16
f 65/10/16 58/3/3 50/2/2
f 82/10/33 80/3/34 78/4/35
f 78/4/35 79/8/36 82/10/33
f 82/10/33 75/3/37 81/10/38
f 81/10/38 80/3/34 82/10/33
f 46/23/19 42/13/17 50/12/2
f 50/12/2 51/24/1 46/23/19
f 47/5/22 46/23/19 51/24/1
f 51/24/1 52/6/9 47/5/22
f 69/10/39 58/3/3 65/10/16
f 58/3/3 69/10/39 66/3/40
f 81/10/38 66/3/40 69/10/39
f 66/3/40 81/10/38 75/3/37
f 62/8/31 71/8/41 72/8/42
f 71/8/41 62/8/31 61/8/32
f 55/7/8 61/8/32 62/8/31
f 61/8/32 55/7/8 53/7/7
f 68/3/43 81/10/38 69/10/39
f 81/10/38 68/3/43 80/3/34
f 73/4/44 80/3/34 68/3/43
f 80/3/34 73/4/44 78/4/35
f 72/8/42 78/4/35 73/4/44
f 78/4/35 72/8/42 79/8/36
f 71/8/41 79/8/36 72/8/42
f 44/13/28 57/11/15 45/14/18
f 57/11/15 44/13/28 56/12/12
f 43/23/25 56/12/12 44/13/28
f 56/12/12 43/23/25 54/24/13
f 49/5/5 54/24/13 43/23/25
f 54/24/13 49/5/5 55/6/8
f 77/8/45 71/8/41 70/8/46
f 71/8/41 77/8/45 79/8/36
f 82/10/33 79/8/36 77/8/45
f 82/10/33 74/4/47 75/3/37
f 74/4/47 82/10/33 76/8/48
f 77/8/45 76/8/48 82/10/33
f 76/8/48 77/8/45 70/8/46
f 73/4/44 62/8/31 72/8/42
f 62/8/31 73/4/44 63/4/14
f 68/3/43 63/4/14 73/4/44
f 63/4/14 68/3/43 64/3/11
f 69/10/39 64/3/11 68/3/43
f 64/3/11 69/10/39 65/10/16
f 67/4/49 58/3/3 66/3/40
f 58/3/3 67/4/49 59/4/4
f 70/8/46 59/4/4 67/4/49
f 59/4/4 70/8/46 60/8/10
f 71/8/41 60/8/10 70/8/46
f 60/8/10 71/8/41 61/8/32
f 67/4/49 76/8/48 70/8/46
f 76/8/48 67/4/49 74/4/47
f 66/3/40 74/4/47 67/4/49
f 74/4/47 66/3/40 75/3/37
usemtl material_1.002
f 20/25/50 25/25/51 21/25/52
f 33/25/53 25/25/51 26/25/54
f 8/25/55 7/25/56 40/25/29
f 40/25/29 41/25/30 8/25/55
f 32/25/57 21/25/52 25/25/51
f 25/25/51 33/25/53 32/25/57
f 17/25/58 24/25/59 29/25/60
f 29/25/60 28/25/61 17/25/58
f 31/25/62 32/25/57 33/25/53
f 33/25/53 30/25/63 31/25/62
f 4/25/64 3/25/65 36/25/23
f 36/25/23 37/25/24 4/25/64
f 6/25/66 5/25/67 39/25/27
f 39/25/27 38/25/26 6/25/66
f 22/25/68 23/25/69 15/25/70
f 15/25/70 14/25/71 22/25/68
f 29/25/60 30/25/63 33/25/53
f 33/25/53 28/25/61 29/25/60
f 18/25/72 19/25/73 11/25/74
f 11/25/74 10/25/75 18/25/72
f 7/25/56 6/25/66 38/25/26
f 38/25/26 40/25/29 7/25/56
f 2/25/76 1/25/77 35/25/21
f 35/25/21 34/25/20 2/25/76
f 3/25/65 2/25/76 34/25/20
f 34/25/20 36/25/23 3/25/65
f 27/25/78 28/25/61 33/25/53
f 33/25/53 26/25/54 27/25/78
f 19/25/73 25/25/51 20/25/50
f 25/25/51 19/25/73 26/25/54
f 18/25/72 26/25/54 19/25/73
f 26/25/54 18/25/72 27/25/78
f 17/25/58 27/25/78 18/25/72
f 27/25/78 17/25/58 28/25/61
f 2/25/76 11/25/74 1/25/77
f 11/25/74 2/25/76 10/25/79
f 3/25/65 10/25/79 2/25/76
f 10/25/79 3/25/65 9/25/80
f 4/25/64 9/25/80 3/25/65
f 9/25/80 4/25/64 16/25/81
f 6/25/66 15/25/70 5/25/67
f 15/25/70 6/25/66 14/25/82
f 7/25/56 14/25/82 6/25/66
f 14/25/82 7/25/56 13/25/83
f 8/25/55 13/25/83 7/25/56
f 13/25/83 8/25/55 12/25/84
f 21/25/52 12/25/84 20/25/50
f 12/25/84 21/25/52 13/25/85
f 22/25/68 13/25/85 21/25/52
f 13/25/85 22/25/68 14/25/71
f 12/25/84 19/25/73 20/25/50
f 19/25/73 12/25/84 11/25/74
f 8/25/55 11/25/74 12/25/84
f 11/25/74 8/25/55 1/25/77
f 41/25/30 1/25/77 8/25/55
f 1/25/77 41/25/30 35/25/21
f 17/25/58 16/25/81 24/25/59
f 16/25/81 17/25/58 9/25/86
f 18/25/72 9/25/86 17/25/58
f 9/25/86 18/25/72 10/25/75
f 5/25/67 37/25/24 39/25/27
f 37/25/24 5/25/67 4/25/64
f 15/25/70 4/25/64 5/25/67
f 4/25/64 15/25/70 16/25/81
f 23/25/69 16/25/81 15/25/70
f 16/25/81 23/25/69 24/25/59
f 30/25/63 24/25/59 23/25/69
f 24/25/59 30/25/63 29/25/60
f 22/25/68 30/25/63 23/25/69
f 30/25/63 22/25/68 31/25/62
f 21/25/52 31/25/62 22/25/68
f 31/25/62 21/25/52 32/25/57
