# 3ds Max Wavefront OBJ Exporter v0.99 - (c)2007 guruware
# File Created: 18.04.2025 13:32:43

mtllib bote1.mtl

#
# object patas
#

v  0.1650 0.0186 0.0056
v  0.1650 0.0186 -0.0144
v  0.1650 0.4507 -0.0144
v  0.1650 0.4507 0.0056
v  0.1450 0.0186 0.0056
v  0.1450 0.4507 0.0056
v  0.1450 0.0186 -0.0144
v  0.1450 0.4507 -0.0144
v  0.1650 0.0186 0.0956
v  0.1650 0.0186 -0.1044
v  0.1450 0.0186 -0.1044
v  0.1450 0.0186 0.0956
v  0.1450 -0.0014 -0.1044
v  0.1450 -0.0014 0.0956
v  0.1650 -0.0014 0.0956
v  0.1650 -0.0014 -0.1044
v  -0.1450 0.1586 -0.0144
v  -0.1450 0.1586 0.0056
v  0.1450 0.1586 0.0056
v  0.1450 0.1586 -0.0144
v  -0.1450 0.1386 0.0056
v  0.1450 0.1386 0.0056
v  -0.1450 0.1386 -0.0144
v  0.1450 0.1386 -0.0144
v  -0.1650 0.0186 0.0056
v  -0.1650 0.4507 0.0056
v  -0.1650 0.4507 -0.0144
v  -0.1650 0.0186 -0.0144
v  -0.1450 0.0186 0.0056
v  -0.1450 0.4507 0.0056
v  -0.1450 0.0186 -0.0144
v  -0.1450 0.4507 -0.0144
v  -0.1650 0.0186 0.0956
v  -0.1450 0.0186 0.0956
v  -0.1450 0.0186 -0.1044
v  -0.1650 0.0186 -0.1044
v  -0.1450 -0.0014 0.0956
v  -0.1450 -0.0014 -0.1044
v  -0.1650 -0.0014 0.0956
v  -0.1650 -0.0014 -0.1044
# 40 vertices

vn 1.0000 0.0000 0.0000
vn -0.0000 0.0000 1.0000
vn -1.0000 0.0000 0.0000
vn 0.0000 0.0000 -1.0000
vn 0.0000 1.0000 0.0000
vn 0.0000 -1.0000 0.0000
# 6 vertex normals

vt 0.9654 0.5866 0.0000
vt 0.9487 0.5866 0.0000
vt 0.9487 0.9478 0.0000
vt 0.9654 0.9478 0.0000
vt 0.9152 0.5868 0.0000
vt 0.8985 0.5868 0.0000
vt 0.8985 0.9480 0.0000
vt 0.9152 0.9480 0.0000
vt 0.9319 0.5868 0.0000
vt 0.9319 0.9480 0.0000
vt 0.9319 0.5866 0.0000
vt 0.9319 0.9478 0.0000
vt 0.0576 0.7229 0.0000
vt 0.0576 0.8901 0.0000
vt 0.0409 0.8901 0.0000
vt 0.0409 0.7229 0.0000
vt 0.0743 0.7229 0.0000
vt 0.0743 0.8901 0.0000
vt 0.0241 0.8901 0.0000
vt 0.0241 0.7229 0.0000
vt 0.5595 0.7389 0.0000
vt 0.5595 0.7222 0.0000
vt 0.8020 0.7222 0.0000
vt 0.8020 0.7389 0.0000
vt 0.5595 0.7556 0.0000
vt 0.8020 0.7556 0.0000
vt 0.5595 0.7055 0.0000
vt 0.5595 0.6887 0.0000
vt 0.8020 0.6887 0.0000
vt 0.8020 0.7055 0.0000
vt 0.0576 0.9069 0.0000
vt 0.0409 0.9069 0.0000
vt 0.0409 0.7062 0.0000
vt 0.0576 0.7062 0.0000
vt 0.9299 0.9582 0.0000
vt 0.9466 0.9582 0.0000
vt 0.9466 0.9749 0.0000
vt 0.9299 0.9749 0.0000
vt 0.8194 0.5866 0.0000
vt 0.8194 0.9478 0.0000
vt 0.8361 0.9478 0.0000
vt 0.8361 0.5866 0.0000
vt 0.8863 0.5866 0.0000
vt 0.8863 0.9478 0.0000
vt 0.8695 0.9478 0.0000
vt 0.8695 0.5866 0.0000
vt 0.8528 0.5866 0.0000
vt 0.8528 0.9478 0.0000
vt 0.1026 0.7114 0.0000
vt 0.1193 0.7114 0.0000
vt 0.1193 0.8786 0.0000
vt 0.1026 0.8786 0.0000
vt 0.0859 0.7114 0.0000
vt 0.0859 0.8786 0.0000
vt 0.1360 0.7114 0.0000
vt 0.1360 0.8786 0.0000
vt 0.1193 0.6947 0.0000
vt 0.1026 0.6947 0.0000
vt 0.1193 0.8954 0.0000
vt 0.1026 0.8954 0.0000
vt 0.8528 0.9570 0.0000
vt 0.8528 0.9737 0.0000
vt 0.8361 0.9737 0.0000
vt 0.8361 0.9570 0.0000
# 64 texture coords

o patas
g patas
usemtl bin
s off
f 1/1/1 2/2/1 3/3/1 4/4/1 
f 5/5/2 1/6/2 4/7/2 6/8/2 
f 7/9/3 5/5/3 6/8/3 8/10/3 
f 2/2/4 7/11/4 8/12/4 3/3/4 
f 9/13/5 10/14/5 11/15/5 12/16/5 
f 12/17/3 11/18/3 13/14/3 14/13/3 
f 15/16/1 16/15/1 10/19/1 9/20/1 
f 17/21/5 18/22/5 19/23/5 20/24/5 
f 18/25/2 21/21/2 22/24/2 19/26/2 
f 21/27/6 23/28/6 24/29/6 22/30/6 
f 23/30/4 17/23/4 20/22/4 24/27/4 
f 12/31/2 14/32/2 15/15/2 9/14/2 
f 11/16/4 10/33/4 16/34/4 13/13/4 
f 6/35/5 4/36/5 3/37/5 8/38/5 
f 25/39/3 26/40/3 27/41/3 28/42/3 
f 29/43/2 30/44/2 26/45/2 25/46/2 
f 31/47/1 32/48/1 30/45/1 29/46/1 
f 28/42/4 27/41/4 32/48/4 31/47/4 
f 33/49/5 34/50/5 35/51/5 36/52/5 
f 34/53/1 37/49/1 38/52/1 35/54/1 
f 39/50/3 33/55/3 36/56/3 40/51/3 
f 34/57/2 33/50/2 39/49/2 37/58/2 
f 35/52/4 38/51/4 40/59/4 36/60/4 
f 30/61/5 32/62/5 27/63/5 26/64/5 
# 24 polygons

#
# object cuerpo
#

v  -0.1400 0.2042 0.1080
v  -0.1400 0.1937 -0.0917
v  0.1400 0.1937 -0.0917
v  0.1400 0.2042 0.1080
v  0.1400 0.5932 -0.1126
v  0.1400 0.6036 0.0871
v  -0.1400 0.6036 0.0871
v  -0.1400 0.5932 -0.1126
v  -0.1390 0.2051 0.1070
v  -0.1390 0.1948 -0.0908
v  -0.1390 0.5932 -0.1116
v  -0.1390 0.6036 0.0861
v  0.1390 0.6036 0.0861
v  0.1390 0.2051 0.1070
v  0.1390 0.1948 -0.0908
v  0.1390 0.5932 -0.1116
# 16 vertices

vn -0.0000 -0.9986 0.0523
vn 1.0000 0.0000 0.0000
vn -1.0000 0.0000 0.0000
vn 0.0000 -0.0523 -0.9986
vn 0.0000 0.0523 0.9986
vn -0.0000 0.9986 -0.0523
# 6 vertex normals

vt 0.9944 0.1572 0.0000
vt 0.9172 0.1572 0.0000
vt 1.0021 0.0015 0.0000
vt 0.9944 0.0042 0.0000
vt 0.9950 0.9950 0.0000
vt 0.0050 0.9950 0.0000
vt 0.0050 0.0050 0.0000
vt 0.0000 -0.0002 0.0000
vt 1.0000 -0.0002 0.0000
vt 1.0000 1.0000 0.0000
vt 0.0000 1.0000 0.0000
vt 1.0000 0.0000 0.0000
vt 0.0000 0.0000 0.0000
vt 0.1448 0.5750 0.0000
vt 0.2706 0.6240 0.0000
vt 0.2706 0.7186 0.0000
vt 0.1448 0.7576 0.0000
vt 0.4657 0.8826 0.0000
vt 0.3236 0.8826 0.0000
vt 0.3236 0.6333 0.0000
vt 0.4657 0.6333 0.0000
vt 0.2455 0.5275 0.0000
vt 0.2455 0.7002 0.0000
vt 0.6511 0.5459 0.0000
vt 0.6511 0.8305 0.0000
vt 0.5255 0.8305 0.0000
vt 0.5255 0.5459 0.0000
vt 0.8137 0.8641 0.0000
vt 0.7400 0.8641 0.0000
vt 0.7400 0.6363 0.0000
vt 0.8137 0.6363 0.0000
# 31 texture coords

o cuerpo
g cuerpo
usemtl 02___Default
s off
f 41/65/7 42/66/7 43/67/7 44/68/7 
f 45/69/8 46/70/8 44/71/8 43/67/8 
f 42/72/9 41/73/9 47/74/9 48/75/9 
f 42/76/10 48/74/10 45/75/10 43/77/10 
f 49/78/8 50/79/8 51/80/8 52/81/8 
f 52/82/10 53/83/10 54/84/10 49/85/10 
f 55/86/11 56/87/11 51/80/11 50/79/11 
f 54/88/9 53/89/9 56/90/9 55/91/9 
f 54/92/12 55/93/12 50/94/12 49/95/12 
# 9 polygons

#
# object cara
#

v  -0.1400 0.6036 0.0871
v  -0.1400 0.2042 0.1080
v  0.1400 0.2042 0.1080
v  0.1400 0.6036 0.0871
# 4 vertices

vn 0.0000 0.0523 0.9986
# 1 vertex normals

vt 0.0010 1.0000 0.0000
vt 0.0010 0.0029 0.0000
vt 1.0000 0.0029 0.0000
vt 1.0000 1.0000 0.0000
# 4 texture coords

o cara
g cara
usemtl 03___Default
s off
f 57/96/13 58/97/13 59/98/13 60/99/13 
# 1 polygons

