# Blender 4.4.1
# www.blender.org
mtllib brazoIzquierdoGumball.mtl
o brazoIzquierdo
v 1.266246 -2.017277 0.470382
v 1.188913 -2.306893 0.658582
v 0.954122 -2.137181 0.614382
v 1.183754 -2.126134 -0.027218
v 0.880985 -1.977516 -0.062918
v 0.811105 -1.683413 -0.169818
v 0.982916 -2.452491 0.215182
v 1.199266 -2.462624 0.277882
v 0.929990 -2.266180 0.172382
v 1.276781 -2.101298 0.213682
v 1.127804 -2.489324 0.086782
v 0.993926 -2.413180 0.493182
v 0.935343 -2.232183 0.387682
v 1.221784 -2.459547 0.360582
v 0.738771 -1.950587 0.514582
v 0.994663 -1.754642 0.627182
v 1.159308 -1.896652 0.667082
v 1.140634 -2.232263 0.855282
v 0.984489 -2.267910 0.714182
v 1.021815 -2.519291 0.997882
v 0.932719 -2.492526 0.843882
v 1.220559 -2.406391 0.560182
v 0.508685 -0.598029 -0.125618
v 0.347374 -0.784824 0.223682
v 0.640132 -0.808418 -0.068618
v 0.412989 -0.831374 -0.328118
v 1.025598 -1.480576 0.219382
v 1.047130 -2.566461 0.823982
v -0.274226 -0.363396 -0.184118
v -0.047809 -0.062945 0.118182
v 0.322263 -0.708344 0.212282
v 0.086803 0.139619 -0.119918
v -0.073785 -0.094131 -0.288218
v 0.604968 -1.649839 0.163782
v 0.931942 -2.715987 0.262182
v 1.012979 -2.762350 0.336282
v 0.989514 -2.772256 0.190882
v 0.908788 -2.701714 0.574482
v 1.021942 -2.798887 0.515982
v 0.768943 -1.541351 0.500282
v 0.996752 -2.754737 0.668582
v 0.303851 -1.140902 -0.014418
v 0.530744 -1.081409 -0.265318
v 0.466274 -1.013317 0.275082
v 0.155483 -0.806376 -0.114218
v 0.380289 -0.738875 -0.340918
vn -0.2922 -0.8561 0.4262
vn -0.2684 -0.4804 -0.8350
vn -0.6530 -0.5451 0.5258
vn -0.3259 -0.4423 -0.8356
vn -0.5308 -0.5102 -0.6767
vn -0.0643 -0.3545 -0.9328
vn -0.9607 0.0731 0.2678
vn -0.2403 0.2488 0.9383
vn -0.8209 -0.5675 -0.0640
vn -0.4352 -0.8794 0.1932
vn -0.6307 -0.1236 -0.7662
vn -0.9686 0.1655 0.1854
vn -0.6131 -0.7798 0.1268
vn -0.4505 -0.2848 -0.8462
vn -0.8194 -0.2943 0.4919
vn -0.3766 -0.0400 0.9255
vn -0.4709 0.1463 0.8700
vn -0.6432 0.4632 0.6098
vn -0.9824 -0.0764 -0.1704
vn -0.6855 0.4978 0.5313
vn -0.9729 0.1052 -0.2061
vn -0.3156 0.3621 0.8771
vn 0.8492 0.5135 -0.1228
vn -0.1610 0.1637 0.9733
vn 0.8684 0.4927 -0.0564
vn 0.0788 -0.1522 -0.9852
vn 0.9517 -0.2903 0.1002
vn 0.9574 -0.2751 0.0877
vn 0.9698 0.2053 0.1319
vn 0.9781 0.0810 -0.1916
vn 0.7989 0.5999 -0.0440
vn 0.8886 -0.3770 -0.2614
vn 0.8846 -0.3706 -0.2830
vn 0.8978 0.1183 -0.4242
vn 0.9393 -0.1485 0.3092
vn 0.9411 -0.1668 0.2943
vn 0.5734 -0.7520 0.3251
vn 0.6075 -0.7400 0.2886
vn 0.8405 0.4126 0.3511
vn 0.4619 0.7195 0.5186
vn 0.1215 0.2111 0.9699
vn -0.6505 -0.3509 0.6736
vn 0.0309 0.0703 0.9970
vn 0.8375 0.5341 -0.1151
vn 0.2091 0.0709 -0.9753
vn -0.9370 -0.3439 -0.0609
vn -0.8092 -0.3608 -0.4637
vn -0.9706 0.2090 0.1191
vn -0.4387 0.2899 0.8506
vn -0.7242 0.0374 -0.6886
vn -0.9619 0.2642 -0.0698
vn -0.5153 -0.0878 -0.8525
vn -0.7537 0.0784 0.6526
vn -0.3607 -0.3876 -0.8483
vn -0.4495 0.4051 0.7961
vn -0.7255 -0.5662 -0.3913
vn -0.6374 -0.4590 -0.6189
vn 0.1116 -0.2431 -0.9636
vn 0.0670 -0.1634 -0.9843
vn -0.1863 0.2117 0.9594
vn 0.8467 0.5241 0.0915
vn -0.7524 -0.4191 0.5081
vn -0.8027 -0.2574 0.5379
vn 0.1205 0.0084 -0.9927
vn -0.5496 -0.3944 -0.7365
vn -0.1272 -0.2738 -0.9533
vn -0.6078 -0.7839 0.1265
vn 0.5183 -0.8077 0.2809
vn 0.3251 -0.8926 0.3124
vn 0.6998 0.3980 -0.5931
vn -0.5901 -0.7934 0.1493
vn 0.4873 -0.8711 -0.0613
vn 0.4875 -0.8729 -0.0191
vn -0.5174 -0.8419 0.1530
vn 0.4046 0.7447 0.5308
vn -0.1605 0.3079 0.9378
vn -0.8164 -0.2674 0.5119
vn -0.8153 0.5790 0.0077
vn -0.8120 0.5835 0.0071
vn -0.8012 0.5984 0.0053
vn -0.8275 0.5614 0.0098
vt 0.535300 -0.112900
vt 0.527000 -0.134700
vt 0.520800 -0.102900
vt 0.609500 -0.091000
vt 0.618300 -0.079600
vt 0.637900 -0.109000
vt 0.596800 -0.143800
vt 0.577000 -0.144800
vt 0.586800 -0.117300
vt 0.574400 -0.116100
vt 0.625900 -0.135400
vt 0.549500 -0.144500
vt 0.558700 -0.116600
vt 0.574000 -0.146100
vt 0.542100 -0.071200
vt 0.502700 -0.062700
vt 0.496100 -0.089900
vt 0.480300 -0.124800
vt 0.509000 -0.128000
vt 0.471700 -0.172800
vt 0.493400 -0.166700
vt 0.528600 -0.136800
vt 0.724400 -0.110300
vt 0.685800 -0.101200
vt 0.722800 -0.088100
vt 0.751200 -0.100300
vt 0.420600 -0.157400
vt 0.394800 -0.156300
vt 0.424100 -0.107200
vt 0.390300 -0.107500
vt 0.415700 -0.027700
vt 0.379900 -0.150600
vt 0.354600 -0.145800
vt 0.359900 -0.096600
vt 0.460600 -0.146500
vt 0.433900 -0.143500
vt 0.440700 -0.185300
vt 0.463200 -0.189200
vt 0.454000 -0.096000
vt 0.461100 -0.069200
vt 0.694600 -0.178400
vt 0.654000 -0.162000
vt 0.687400 -0.109000
vt 0.720300 -0.194900
vt 0.744800 -0.178200
vt 0.572300 -0.018100
vt 0.622200 -0.019000
vt 0.606900 -0.190600
vt 0.591300 -0.200700
vt 0.624100 -0.193300
vt 0.540200 -0.190500
vt 0.558500 -0.201800
vt 0.521800 -0.018600
vt 0.507200 -0.179300
vt 0.514800 -0.190900
vt 0.794700 -0.022100
vt 0.786600 -0.079500
vt 0.758800 -0.012900
vt 0.753900 -0.075300
vt 0.682900 -0.075300
vt 0.712900 -0.012600
vt 0.653100 -0.117700
vt 0.649500 -0.083300
vt 0.749600 -0.108500
vt 0.778100 -0.115700
vt 0.771600 -0.160600
vt 0.411200 -0.225800
vt 0.400400 -0.208900
vt 0.420600 -0.210900
vt 0.354900 -0.022200
vt 0.352400 -0.199600
vt 0.348300 -0.186800
vt 0.365800 -0.193000
vt 0.444600 -0.202000
vt 0.463900 -0.027300
vt 0.677100 -0.014100
vt 0.643200 -0.026400
s 1
usemtl 01___Default
f 1/1/1 2/2/2 3/3/3
f 4/4/4 5/5/5 6/6/6
f 7/7/7 8/8/8 9/9/9
f 8/8/8 10/10/10 9/9/9
f 11/11/11 9/9/9 4/4/4
f 7/7/7 9/9/9 11/11/11
f 12/12/12 13/13/13 14/14/14
f 14/14/14 13/13/13 10/10/10
f 15/15/15 5/5/5 13/13/13
f 16/16/16 15/15/15 17/17/17
f 15/15/15 3/3/3 17/17/17
f 17/17/17 3/3/3 18/18/18
f 19/19/19 3/3/3 2/2/2
f 18/18/18 19/19/19 20/20/20
f 19/19/19 21/21/21 20/20/20
f 12/12/12 22/22/22 13/13/13
f 22/22/22 1/1/1 13/13/13
f 23/23/23 24/24/24 25/25/25
f 23/23/23 25/25/25 26/26/26
f 22/27/27 14/28/28 1/29/29
f 14/28/28 10/30/30 1/29/29
f 1/29/29 10/30/30 27/31/31
f 8/32/32 11/33/33 10/30/30
f 11/33/33 4/34/34 10/30/30
f 1/29/29 18/35/35 2/36/36
f 2/36/36 18/35/35 28/37/37
f 18/35/35 20/38/38 28/37/37
f 1/29/29 27/31/31 17/39/39
f 18/35/35 1/29/29 17/39/39
f 17/39/39 27/31/31 16/40/40
f 30/41/41 29/42/42 31/43/43
f 30/41/41 31/43/43 32/44/44
f 32/44/44 31/43/43 23/23/23
f 32/44/44 23/23/23 33/45/45
f 5/5/5 4/4/4 9/9/9
f 5/5/5 34/46/46 6/47/47
f 5/5/5 9/9/9 13/13/13
f 13/13/13 1/1/1 3/3/3
f 35/48/48 36/49/49 7/7/7
f 13/13/13 9/9/9 10/10/10
f 35/48/48 7/7/7 37/50/50
f 37/50/50 7/7/7 11/11/11
f 38/51/51 12/12/12 39/52/52
f 39/52/52 12/12/12 14/14/14
f 34/46/46 5/5/5 15/15/15
f 3/3/3 15/15/15 13/13/13
f 40/53/53 34/46/46 15/15/15
f 40/53/53 15/15/15 16/16/16
f 3/3/3 19/19/19 18/18/18
f 28/54/54 19/19/19 2/2/2
f 21/21/21 19/19/19 28/54/54
f 38/51/51 41/55/55 12/12/12
f 41/55/55 22/22/22 12/12/12
f 34/56/56 42/57/57 6/58/58
f 6/58/58 42/57/57 43/59/59
f 31/43/43 24/24/24 23/23/23
f 25/25/25 6/58/58 43/59/59
f 26/26/26 25/25/25 43/59/59
f 24/24/24 44/60/60 25/25/25
f 27/61/61 6/58/58 25/25/25
f 25/25/25 44/60/60 27/61/61
f 29/42/42 45/62/62 31/43/43
f 31/43/43 45/62/62 24/24/24
f 45/62/62 42/63/63 24/24/24
f 24/24/24 42/63/63 44/60/60
f 46/64/64 23/23/23 26/26/26
f 33/45/45 23/23/23 46/64/64
f 26/26/26 42/57/57 45/65/65
f 26/26/26 45/65/65 46/64/64
f 46/64/64 45/65/65 33/45/45
f 45/65/65 29/66/66 33/45/45
f 38/67/67 39/68/68 41/69/69
f 41/69/69 39/68/68 22/27/27
f 39/68/68 14/28/28 22/27/27
f 10/30/30 4/34/34 27/31/31
f 27/31/31 4/34/34 6/70/70
f 35/71/71 37/72/72 36/73/73
f 37/72/72 11/33/33 8/32/32
f 28/37/37 20/38/38 21/74/74
f 27/31/31 40/75/75 16/40/40
f 36/49/49 8/8/8 7/7/7
f 42/57/57 26/26/26 43/59/59
f 44/60/60 40/76/76 27/61/61
f 44/60/60 34/77/77 40/76/76
f 42/63/63 34/77/77 44/60/60
f 36/73/73 37/72/72 8/32/32
f 30/41/78 33/45/79 29/66/80
f 30/41/78 32/44/81 33/45/79
