# Blender 4.4.1
# www.blender.org
mtllib brazoDerechoGumball.mtl
o brazoDerecho
v -1.555010 -1.804671 0.541572
v -1.258214 -1.958785 0.685572
v -1.510741 -2.101176 0.729772
v -0.642945 -0.479310 -0.054428
v -0.470074 -0.609839 0.283472
v -0.140986 0.206362 -0.048728
v -1.485249 -1.922093 0.043972
v -1.167810 -1.808417 0.008272
v -1.248795 -2.089720 0.243572
v -1.250391 -2.055379 0.458872
v -1.322375 -2.268961 0.286372
v -1.538497 -2.254763 0.349072
v -1.574993 -1.887023 0.284872
v -1.470390 -2.289267 0.157972
v -1.560527 -2.249179 0.431772
v -1.328907 -2.228663 0.564372
v -1.400010 -2.608793 0.587172
v -1.276670 -2.524925 0.645672
v -1.303234 -2.085368 0.785372
v -1.454395 -2.032432 0.926472
v -1.435217 -1.696801 0.738272
v -1.023384 -1.797567 0.585772
v -1.255773 -1.574198 0.698372
v -1.007553 -1.387572 0.571472
v -1.276985 -2.314374 0.915072
v -1.398877 -2.374966 0.895172
v -1.553347 -2.196496 0.631372
v -0.007811 -0.044012 -0.217028
v -0.531339 -0.633754 -0.269728
v -1.255680 -1.298349 0.290572
v -1.364618 -2.585882 0.262072
v -1.387005 -2.573493 0.407472
v -1.368522 -2.330976 1.069072
v -0.030035 -0.010065 0.189372
v 0.161162 -0.334060 -0.112928
v -0.856780 -1.513768 0.234972
v -1.065383 -1.524008 -0.098628
v -1.301279 -2.536511 0.333372
v -1.369936 -2.567705 0.739772
v -0.574208 -0.722002 -0.256928
v -0.500478 -1.041818 0.056772
v -0.719176 -0.957207 -0.194128
v -0.647565 -0.896819 0.346272
v -0.797343 -0.673713 0.002572
v -0.503786 -0.683105 0.294872
v -0.315524 -0.726046 -0.043028
vn 0.1945 -0.8835 0.4261
vn 0.5876 -0.6147 0.5262
vn 0.2128 -0.5075 -0.8350
vn -0.7862 0.6057 -0.1227
vn -0.0223 0.0730 0.9971
vn -0.7724 0.6247 -0.1149
vn 0.2742 -0.4761 -0.8356
vn 0.4702 -0.5665 -0.6768
vn 0.7522 -0.6559 -0.0640
vn 0.5216 -0.8437 0.1268
vn 0.9628 -0.0351 0.2680
vn 0.2670 0.2203 0.9382
vn 0.3339 -0.9226 0.1932
vn 0.6129 -0.1935 -0.7661
vn 0.4157 -0.3335 -0.8462
vn 0.9810 0.0557 0.1856
vn 0.5022 -0.1451 -0.8525
vn 0.9855 0.1545 -0.0701
vn 0.9675 -0.1866 -0.1704
vn 0.6908 0.3880 0.6101
vn 0.4842 0.0927 0.8700
vn 0.7813 -0.3843 0.4919
vn 0.3697 -0.0819 0.9255
vn 0.7577 -0.0065 0.6526
vn 0.9785 -0.0046 -0.2062
vn 0.3150 -0.4256 -0.8483
vn 0.3542 0.3245 0.8771
vn -0.1999 0.0941 -0.9753
vn -0.1189 0.0219 -0.9927
vn -0.9783 -0.1816 0.1002
vn -0.9406 0.3129 0.1317
vn -0.9822 -0.1659 0.0878
vn -0.9629 0.1902 -0.1916
vn -0.7266 0.6857 -0.0439
vn -0.8788 0.2183 -0.4244
vn -0.9204 -0.2692 -0.2834
vn -0.5816 -0.8111 -0.0622
vn -0.9251 -0.2751 -0.2619
vn -0.5826 -0.8125 -0.0199
vn -0.9538 -0.0602 0.2943
vn -0.9501 -0.0422 0.3091
vn -0.6542 -0.6829 0.3250
vn -0.6866 -0.6673 0.2886
vn -0.7889 0.5044 0.3511
vn -0.3783 0.7668 0.5186
vn -0.0972 0.2235 0.9699
vn 0.6071 -0.4217 0.6735
vn 0.8926 -0.4468 -0.0610
vn 0.7636 -0.4493 -0.4637
vn 0.0237 -0.3592 -0.9330
vn 0.9879 0.0989 0.1195
vn 0.4687 0.2389 0.8504
vn 0.7245 -0.0438 -0.6879
vn 0.7370 0.4178 0.5313
vn 0.4924 0.3522 0.7959
vn -0.0954 -0.1423 -0.9852
vn 0.5819 -0.5276 -0.6189
vn -0.0847 -0.1550 -0.9843
vn -0.1381 -0.2291 -0.9636
vn 0.1941 0.2879 0.9378
vn 0.2089 0.1895 0.9594
vn -0.7826 0.6158 0.0916
vn -0.8076 0.5871 -0.0565
vn 0.1782 0.1448 0.9733
vn 0.7007 -0.5010 0.5080
vn 0.7688 -0.3459 0.5379
vn 0.5019 -0.4535 -0.7365
vn 0.0957 -0.2864 -0.9533
vn 0.5161 -0.8472 0.1264
vn -0.4232 -0.8505 0.3124
vn -0.6057 -0.7443 0.2813
vn -0.6508 0.4740 -0.5931
vn 0.4977 -0.8544 0.1494
vn 0.4197 -0.8947 0.1527
vn -0.3188 0.7851 0.5310
vn 0.6574 -0.6440 -0.3913
vn 0.7812 -0.3573 0.5119
vt 0.535300 -0.112900
vt 0.520800 -0.102900
vt 0.527000 -0.134700
vt 0.724400 -0.110300
vt 0.687400 -0.109000
vt 0.720300 -0.194900
vt 0.609500 -0.091000
vt 0.618300 -0.079600
vt 0.586800 -0.117300
vt 0.558700 -0.116600
vt 0.596800 -0.143800
vt 0.577000 -0.144800
vt 0.574400 -0.116100
vt 0.625900 -0.135400
vt 0.574000 -0.146100
vt 0.549500 -0.144500
vt 0.558500 -0.201800
vt 0.540200 -0.190500
vt 0.509000 -0.128000
vt 0.480300 -0.124800
vt 0.496100 -0.089900
vt 0.542100 -0.071200
vt 0.502700 -0.062700
vt 0.521800 -0.018600
vt 0.493400 -0.166700
vt 0.507200 -0.179300
vt 0.528600 -0.136800
vt 0.744800 -0.178200
vt 0.749600 -0.108500
vt 0.420600 -0.157400
vt 0.424100 -0.107200
vt 0.394800 -0.156300
vt 0.390300 -0.107500
vt 0.415700 -0.027700
vt 0.359900 -0.096600
vt 0.354600 -0.145800
vt 0.348300 -0.186800
vt 0.379900 -0.150600
vt 0.365800 -0.193000
vt 0.433900 -0.143500
vt 0.460600 -0.146500
vt 0.440700 -0.185300
vt 0.463200 -0.189200
vt 0.454000 -0.096000
vt 0.461100 -0.069200
vt 0.694600 -0.178400
vt 0.654000 -0.162000
vt 0.572300 -0.018100
vt 0.622200 -0.019000
vt 0.637900 -0.109000
vt 0.606900 -0.190600
vt 0.591300 -0.200700
vt 0.624100 -0.193300
vt 0.471700 -0.172800
vt 0.514800 -0.190900
vt 0.751200 -0.100300
vt 0.786600 -0.079500
vt 0.753900 -0.075300
vt 0.758800 -0.012900
vt 0.677100 -0.014100
vt 0.682900 -0.075300
vt 0.712900 -0.012600
vt 0.722800 -0.088100
vt 0.685800 -0.101200
vt 0.653100 -0.117700
vt 0.649500 -0.083300
vt 0.778100 -0.115700
vt 0.771600 -0.160600
vt 0.411200 -0.225800
vt 0.420600 -0.210900
vt 0.400400 -0.208900
vt 0.354900 -0.022200
vt 0.352400 -0.199600
vt 0.444600 -0.202000
vt 0.463900 -0.027300
vt 0.794700 -0.022100
vt 0.643200 -0.026400
s 1
usemtl 01___Default
f 1/1/1 2/2/2 3/3/3
f 4/4/4 5/5/5 6/6/6
f 7/7/7 8/8/8 9/9/9
f 1/1/1 10/10/10 2/2/2
f 11/11/11 9/9/9 12/12/12
f 9/9/9 10/10/10 13/13/13
f 12/12/12 9/9/9 13/13/13
f 11/11/11 14/14/14 9/9/9
f 14/14/14 7/7/7 9/9/9
f 15/15/15 16/16/16 17/17/17
f 16/16/16 18/18/18 17/17/17
f 19/19/19 2/2/2 20/20/20
f 20/20/20 2/2/2 21/21/21
f 22/22/22 2/2/2 10/10/10
f 22/22/22 10/10/10 8/8/8
f 21/21/21 22/22/22 23/23/23
f 22/22/22 24/24/24 23/23/23
f 19/19/19 25/25/25 26/26/26
f 3/3/3 19/19/19 26/26/26
f 27/27/27 10/10/10 1/1/1
f 16/16/16 10/10/10 27/27/27
f 4/4/4 28/28/28 29/29/29
f 27/30/30 1/31/31 15/32/32
f 15/32/32 1/31/31 13/33/33
f 1/31/31 30/34/34 13/33/33
f 7/35/35 14/36/36 13/33/33
f 14/36/36 31/37/37 12/38/38
f 12/38/38 31/37/37 32/39/39
f 1/31/31 3/40/40 20/41/41
f 3/40/40 26/42/42 20/41/41
f 20/41/41 26/42/42 33/43/43
f 1/31/31 21/44/44 30/34/34
f 20/41/41 21/44/44 1/31/31
f 21/44/44 23/45/45 30/34/34
f 34/46/46 5/5/5 35/47/47
f 5/5/5 34/46/46 6/6/6
f 6/6/6 28/28/28 4/4/4
f 36/48/48 8/8/8 37/49/49
f 8/8/8 10/10/10 9/9/9
f 8/8/8 7/7/7 37/50/50
f 38/51/51 11/11/11 32/52/52
f 32/52/52 11/11/11 12/12/12
f 38/51/51 31/53/53 11/11/11
f 31/53/53 14/14/14 11/11/11
f 13/13/13 10/10/10 15/15/15
f 10/10/10 16/16/16 15/15/15
f 2/2/2 19/19/19 3/3/3
f 25/25/25 19/19/19 33/54/54
f 33/54/54 19/19/19 20/20/20
f 2/2/2 22/22/22 21/21/21
f 36/48/48 22/22/22 8/8/8
f 24/24/24 22/22/22 36/48/48
f 18/18/18 16/16/16 39/55/55
f 39/55/55 16/16/16 27/27/27
f 40/56/56 41/57/57 42/58/58
f 42/58/58 41/57/57 37/59/59
f 24/60/60 43/61/61 30/62/62
f 42/58/58 44/63/63 40/56/56
f 37/59/59 44/63/63 42/58/58
f 44/63/63 4/4/4 40/56/56
f 30/62/62 44/63/63 37/59/59
f 30/62/62 43/61/61 44/63/63
f 45/64/64 5/5/5 4/4/4
f 44/63/63 45/64/64 4/4/4
f 5/5/5 45/64/64 46/65/65
f 35/47/47 5/5/5 46/65/65
f 46/65/65 45/64/64 41/66/66
f 45/64/64 43/61/61 41/66/66
f 40/56/56 4/4/4 29/29/29
f 46/67/67 40/56/56 29/29/29
f 35/68/68 46/67/67 28/28/28
f 28/28/28 46/67/67 29/29/29
f 18/69/69 39/70/70 17/71/71
f 39/70/70 27/30/30 17/71/71
f 17/71/71 27/30/30 15/32/32
f 13/33/33 30/34/34 7/35/35
f 30/34/34 37/72/72 7/35/35
f 13/33/33 14/36/36 12/38/38
f 31/37/37 38/73/73 32/39/39
f 26/42/42 25/74/74 33/43/43
f 30/34/34 23/45/45 24/75/75
f 41/57/57 36/76/76 37/59/59
f 43/61/61 45/64/64 44/63/63
f 43/61/61 24/60/60 36/77/77
f 41/66/66 43/61/61 36/77/77
f 41/57/57 40/56/56 46/67/67
