# Blender 4.4.1
# www.blender.org
mtllib colaGumball.mtl
o cola
v 0.223208 -0.684205 -1.824656
v -0.042192 -1.132605 -1.724856
v -0.307492 -0.684205 -1.824656
v -0.149792 -0.279005 -0.354656
v -0.199992 -0.530005 -0.776756
v -0.042192 -0.440705 -0.262056
v -0.243392 -0.648005 -1.292856
v -0.042192 -0.782405 -0.671256
v -0.042192 -0.973405 -1.178756
v 0.115708 -0.530005 -0.776756
v 0.065508 -0.279005 -0.354656
v 0.159008 -0.648005 -1.292856
v -0.092492 0.101195 0.014544
v -0.042192 0.025695 0.058844
v 0.008108 0.101195 0.014544
vn -0.0000 -0.2173 -0.9761
vn -0.8537 -0.3439 0.3910
vn -0.8651 -0.4329 0.2536
vn 0.0014 -0.6867 0.7269
vn -0.8640 -0.4790 0.1550
vn 0.0014 -0.8680 0.4965
vn -0.0001 -0.9486 0.3165
vn -0.8647 -0.4827 0.1390
vn -0.0009 -0.9605 0.2782
vn 0.8992 0.4305 -0.0783
vn 0.8952 0.4048 -0.1864
vn 0.8764 0.4811 0.0218
vn 0.8348 0.5468 0.0636
vn -0.0000 0.7903 -0.6127
vn -0.0000 0.9318 -0.3629
vn -0.0000 0.9900 -0.1409
vn -0.0000 0.9977 -0.0679
vn -0.8438 -0.3030 0.4430
vn 0.0007 -0.5659 0.8245
vn 0.7782 0.4933 -0.3888
vn -0.0000 0.6967 -0.7174
vt 0.021100 -0.620800
vt 0.070300 -0.534600
vt 0.120300 -0.620300
vt 0.013500 -0.849300
vt 0.013500 -0.776600
vt 0.052700 -0.849300
vt 0.013500 -0.704000
vt 0.052700 -0.776600
vt 0.052700 -0.704000
vt 0.013500 -0.631300
vt 0.052700 -0.631300
vt 0.091900 -0.776600
vt 0.091900 -0.849300
vt 0.091900 -0.704000
vt 0.091900 -0.631300
vt 0.131000 -0.849300
vt 0.131000 -0.776600
vt 0.131000 -0.704000
vt 0.131000 -0.631300
vt 0.013500 -0.921900
vt 0.052700 -0.921900
vt 0.091900 -0.921900
vt 0.131000 -0.921900
s 1
usemtl 01___Default
f 1/1/1 2/2/1 3/3/1
f 4/4/2 5/5/3 6/6/4
f 5/5/3 7/7/5 8/8/6
f 8/8/6 7/7/5 9/9/7
f 7/7/5 3/10/8 9/9/7
f 9/9/7 3/10/8 2/11/9
f 8/8/6 9/9/7 10/12/10
f 11/13/11 8/8/6 10/12/10
f 9/9/7 2/11/9 12/14/12
f 10/12/10 9/9/7 12/14/12
f 12/14/12 2/11/9 1/15/13
f 11/13/11 10/12/10 4/16/14
f 4/16/14 10/12/10 5/17/15
f 10/12/10 12/14/12 5/17/15
f 5/17/15 12/14/12 7/18/16
f 12/14/12 1/15/13 7/18/16
f 7/18/16 1/15/13 3/19/17
f 6/6/4 5/5/3 8/8/6
f 6/6/4 8/8/6 11/13/11
f 13/20/18 4/4/2 14/21/19
f 14/21/19 4/4/2 6/6/4
f 14/21/19 6/6/4 15/22/20
f 15/22/20 6/6/4 11/13/11
f 15/22/20 11/13/11 13/23/21
f 13/23/21 11/13/11 4/16/14
