# 3ds Max Wavefront OBJ Exporter v0.99 - (c)2007 guruware
# File Created: 20.04.2025 13:03:32

mtllib dado.mtl

#
# object Box001
#

v  -1.6008 -0.0000 1.6008
v  -1.6008 -0.0000 -1.6008
v  1.6008 -0.0000 -1.6008
v  1.6008 -0.0000 1.6008
v  -1.6008 3.2015 1.6008
v  1.6008 3.2015 1.6008
v  1.6008 3.2015 -1.6008
v  -1.6008 3.2015 -1.6008
# 8 vertices

vn -0.5774 -0.5774 0.5774
vn -0.5774 -0.5774 -0.5774
vn 0.5774 -0.5774 -0.5774
vn 0.5774 -0.5774 0.5774
vn -0.5774 0.5774 0.5774
vn 0.5774 0.5774 0.5774
vn 0.5774 0.5774 -0.5774
vn -0.5774 0.5774 -0.5774
# 8 vertex normals

vt 0.0000 1.0000 0.0000
vt -0.0000 0.0000 0.0000
vt 1.0000 0.0000 0.0000
vt 1.0000 1.0000 0.0000
vt 0.0000 0.0000 0.0000
# 5 texture coords

o Box001
g Box001
usemtl 09___Default
s 2
f 1/1/1 2/2/2 3/3/3 4/4/4 
usemtl 08___Default
s 4
f 5/5/5 6/3/6 7/4/7 8/1/8 
usemtl 01___Default
s 8
f 1/5/1 4/3/4 6/4/6 5/1/5 
usemtl 02___Default
s 16
f 4/5/4 3/3/3 7/4/7 6/1/6 
usemtl 03___Default
s 32
f 3/5/3 2/3/2 8/4/8 7/1/7 
usemtl 07___Default
s 64
f 2/5/2 1/3/1 5/4/5 8/1/8 
# 6 polygons

