# Blender 4.4.1
# www.blender.org
mtllib piernaDerechaGumball.mtl
o piernaDerecha
v 0.290953 -0.187264 0.346147
v -0.232747 -1.731364 0.347547
v -0.583647 -1.792564 -0.132953
v -0.636147 -2.004164 0.920747
v -0.572447 -2.218264 -0.137253
v -0.258747 -1.837664 -0.773153
v -0.320347 -2.218264 -0.696153
v 0.034953 -1.830064 -0.738953
v 0.151553 -2.218264 -0.671953
v -0.666947 -2.218264 0.920747
v -0.348147 -1.969964 1.009047
v -0.320147 -2.218264 1.034747
v 0.062253 -1.934364 1.081847
v 0.231053 -2.218264 0.425947
v 0.103953 -2.218264 1.114647
v 0.191853 -2.218264 0.019547
v -0.429247 -1.515564 -0.249853
v 0.215153 -1.970964 0.421647
v 0.208053 -1.693664 0.019547
v 0.212753 -1.555164 -0.165753
v -0.016747 -1.846464 0.741047
v -0.285847 -1.896664 0.632647
v -0.420447 -0.177364 -0.289853
v -0.163747 -1.525664 -0.580653
v 0.218753 -1.119964 -0.161453
v -0.181147 -1.514564 0.187847
v 0.013153 -0.332864 -0.616353
v -0.038147 -0.197764 -0.727553
v 0.346353 -0.281964 -0.449453
v 0.243253 -0.569664 -0.147253
v 0.221853 -0.897464 -0.147253
v -0.070547 -0.756664 -0.639153
v -0.110647 -0.963764 -0.696153
v -0.365247 -0.830664 -0.241353
v -0.153647 -1.143464 0.156447
v -0.119447 -0.865264 0.192047
v -0.087047 -0.595964 0.192047
v -0.338147 -0.493964 -0.231353
v -0.047547 -0.611564 -0.634853
v -0.068947 -0.461664 0.207747
v -0.335647 -0.311364 -0.195753
v -0.028347 -0.456264 -0.630553
v -0.021947 -0.319464 0.267647
v -0.427747 -0.156964 -0.028953
v -0.077547 -0.196864 0.418847
v 0.300853 -0.340064 -0.288353
v 0.286053 -0.346864 0.006747
v -0.392947 -1.082864 -0.245653
v 0.232553 -0.733564 -0.147253
vn -0.0865 0.8976 0.4323
vn -0.9379 0.3355 -0.0880
vn -0.6838 0.5132 0.5187
vn -0.9666 0.0015 -0.2561
vn -0.4115 0.1824 -0.8930
vn -0.5831 -0.0529 -0.8107
vn 0.0886 0.0815 -0.9927
vn 0.0506 -0.1551 -0.9866
vn -0.8421 0.1261 0.5243
vn -0.2434 0.6490 0.7208
vn -0.2420 0.0740 0.9675
vn 0.4084 0.6042 0.6842
vn 0.9951 0.0508 0.0848
vn 0.5745 0.1767 0.7992
vn -0.0000 -1.0000 -0.0000
vn -0.8622 0.4925 -0.1186
vn 0.8776 0.4389 0.1929
vn 0.8638 0.4342 0.2555
vn 0.9909 0.0170 -0.1336
vn 0.9063 0.3140 -0.2827
vn 0.9814 0.1919 -0.0037
vn 0.9589 0.2784 -0.0559
vn 0.1603 0.9656 0.2045
vn -0.0859 0.9120 0.4010
vn -0.4641 0.5632 -0.6837
vn 0.6670 -0.0166 0.7449
vn 0.6730 -0.0508 0.7379
vn -0.1567 0.0698 0.9852
vn 0.0618 -0.4988 -0.8645
vn -0.1445 0.3179 -0.9371
vn 0.8840 0.0328 -0.4664
vn 0.8512 -0.0556 -0.5219
vn 0.0675 0.1276 -0.9895
vn 0.8930 -0.2273 -0.3884
vn 0.8536 -0.0174 -0.5207
vn -0.0165 0.0415 -0.9990
vn -0.9934 0.1120 -0.0226
vn -0.1802 0.0089 0.9836
vn -0.1440 -0.0315 0.9891
vn -0.1276 -0.0395 0.9910
vn -0.9951 0.0653 -0.0738
vn 0.0732 0.0181 -0.9972
vn -0.2185 -0.2457 0.9444
vn -0.9013 -0.4326 -0.0212
vn 0.0201 0.0539 -0.9983
vn -0.0117 -0.6640 0.7476
vn -0.8581 0.3285 -0.3947
vn -0.8576 0.3762 0.3508
vn -0.2704 0.1755 0.9466
vn 0.7730 -0.6034 -0.1961
vn 0.9672 -0.2415 0.0787
vn 0.6347 0.1999 0.7465
vn 0.5907 0.6407 -0.4905
vn 0.7062 -0.0571 0.7057
vn 0.6716 -0.2559 0.6953
vn 0.4441 -0.6508 0.6158
vn -0.9966 0.0794 -0.0230
vn -0.0435 -0.0842 -0.9955
vn -0.9926 0.0841 -0.0875
vn -0.0639 0.6017 0.7962
vn 0.8148 -0.0446 -0.5781
vn 0.7404 -0.0036 -0.6721
vn 0.7176 -0.0468 0.6949
vt 0.887800 -0.113700
vt 0.927300 -0.131400
vt 0.917000 -0.069700
vt 0.950300 -0.116400
vt 0.957800 -0.158100
vt 0.972500 -0.140000
vt 0.970900 -0.178300
vt 0.992200 -0.159000
vt 0.928400 -0.062600
vt 0.899300 -0.062800
vt 0.904600 -0.041900
vt 0.873600 -0.056300
vt 0.831600 -0.083000
vt 0.863800 -0.038900
vt 0.194000 -0.372000
vt 0.182200 -0.342400
vt 0.143900 -0.423100
vt 0.108400 -0.421800
vt 0.090600 -0.356200
vt 0.048000 -0.422000
vt 0.043400 -0.381100
vt 0.914100 -0.160300
vt 0.848400 -0.095600
vt 0.847100 -0.137400
vt 0.814400 -0.109500
vt 0.803300 -0.171700
vt 0.851600 -0.160100
vt 0.784300 -0.147400
vt 0.874500 -0.080300
vt 0.895100 -0.089100
vt 0.936700 -0.183000
vt 0.060500 -0.021400
vt 0.059900 -0.085400
vt 0.114600 -0.021400
vt 0.165900 -0.195000
vt 0.171600 -0.239400
vt 0.199800 -0.218500
vt 0.204400 -0.132400
vt 0.164700 -0.110400
vt 0.204400 -0.150800
vt 0.204400 -0.114000
vt 0.164400 -0.085800
vt 0.132000 -0.095700
vt 0.102900 -0.059700
vt 0.097600 -0.100300
vt 0.094400 -0.141400
vt 0.130500 -0.141400
vt 0.164300 -0.130600
vt 0.092700 -0.160900
vt 0.128500 -0.196900
vt 0.164300 -0.152500
vt 0.087500 -0.215800
vt 0.203200 -0.408400
vt 0.135100 -0.238100
vt 0.117400 -0.244800
vt 0.081800 -0.257800
vt 0.187100 -0.188000
vt 0.208900 -0.165000
vt 0.253200 -0.169200
vt 0.828800 -0.190500
vt 0.061200 -0.118700
vt 0.057800 -0.161200
vt 0.060400 -0.212600
vt 0.048400 -0.241800
vt 0.133200 -0.066300
vt 0.153500 -0.021400
vt 0.139500 -0.021400
vt 0.879700 -0.143800
vt 0.204400 -0.084600
vt 0.204400 -0.021400
vt 0.059500 -0.139950
s 1
usemtl 01___Default
f 2/1/1 3/2/2 4/3/3
f 4/3/3 3/2/2 5/4/4
f 3/2/2 6/5/5 5/4/4
f 5/4/4 6/5/5 7/6/6
f 6/5/5 8/7/7 7/6/6
f 7/6/6 8/7/7 9/8/8
f 5/4/4 10/9/9 4/3/3
f 4/3/3 10/9/9 11/10/10
f 10/9/9 12/11/11 11/10/10
f 11/10/10 12/11/11 13/12/12
f 14/13/13 13/12/12 15/14/14
f 12/15/15 10/16/15 14/17/15
f 14/17/15 10/16/15 16/18/15
f 10/16/15 5/19/15 16/18/15
f 16/18/15 5/19/15 9/20/15
f 5/19/15 7/21/15 9/20/15
f 2/1/1 17/22/16 3/2/2
f 18/23/17 14/13/13 19/24/18
f 19/24/18 2/1/1 18/23/17
f 14/13/13 16/25/19 19/24/18
f 19/24/18 16/25/19 8/26/20
f 8/26/20 20/27/21 19/24/18
f 16/25/19 9/28/22 8/26/20
f 2/1/1 21/29/23 18/23/17
f 18/23/17 21/29/23 13/12/12
f 11/10/10 22/30/24 4/3/3
f 8/7/7 6/5/5 24/31/25
f 20/32/26 25/33/27 26/34/28
f 27/35/29 28/36/30 29/37/31
f 49/38/32 32/39/33 30/40/34
f 32/39/33 31/41/35 33/42/36
f 32/39/33 33/42/36 34/43/37
f 35/44/38 36/45/39 34/43/37
f 36/45/39 37/46/40 34/43/37
f 32/39/33 38/47/41 39/48/42
f 32/39/33 34/43/37 38/47/41
f 34/43/37 37/46/40 38/47/41
f 37/46/40 40/49/43 38/47/41
f 38/47/41 41/50/44 42/51/45
f 38/47/41 40/49/43 41/50/44
f 40/49/43 43/52/46 41/50/44
f 15/14/14 13/12/12 12/11/11
f 15/53/15 12/15/15 14/17/15
f 17/22/16 6/5/5 3/2/2
f 13/12/12 14/13/13 18/23/17
f 20/27/21 2/1/1 19/24/18
f 21/29/23 2/1/1 22/30/24
f 13/12/12 21/29/23 22/30/24
f 13/12/12 22/30/24 11/10/10
f 22/30/24 2/1/1 4/3/3
f 23/54/47 28/36/30 27/35/29
f 41/50/44 23/54/47 27/35/29
f 44/55/48 23/54/47 41/50/44
f 43/52/46 44/55/48 41/50/44
f 45/56/49 44/55/48 43/52/46
f 46/57/50 27/35/29 29/37/31
f 27/35/29 46/57/50 30/40/34
f 47/58/51 29/37/31 1/59/52
f 30/40/34 46/57/50 47/58/51
f 46/57/50 29/37/31 47/58/51
f 24/60/53 20/27/21 8/26/20
f 36/45/39 31/61/54 37/46/40
f 37/46/40 30/62/55 40/49/43
f 47/63/56 45/56/49 43/52/46
f 1/64/52 45/56/49 47/63/56
f 40/49/43 47/63/56 43/52/46
f 30/62/55 47/63/56 40/49/43
f 34/43/37 48/65/57 35/44/38
f 48/65/57 33/42/36 24/66/58
f 48/65/57 26/34/28 35/44/38
f 17/67/59 48/65/57 24/66/58
f 24/31/25 6/5/5 17/22/16
f 26/68/60 2/1/1 20/27/21
f 26/34/28 25/33/27 35/44/38
f 25/33/27 36/45/39 35/44/38
f 42/51/45 27/35/29 30/40/34
f 42/51/45 30/40/34 39/48/42
f 39/48/42 30/40/34 32/39/33
f 31/41/35 25/69/61 33/42/36
f 33/42/36 25/69/61 24/66/58
f 25/69/61 20/70/62 24/66/58
f 39/48/42 38/47/41 42/51/45
f 42/51/45 41/50/44 27/35/29
f 26/68/60 17/22/16 2/1/1
f 25/33/27 31/61/54 36/45/39
f 49/71/63 37/46/40 31/61/54
f 33/42/36 48/65/57 34/43/37
f 26/34/28 48/65/57 17/67/59
f 28/36/30 44/55/48 1/59/52
f 49/38/32 31/41/35 32/39/33
f 49/71/63 30/62/55 37/46/40
f 1/59/52 29/37/31 28/36/30
f 28/36/30 23/54/47 44/55/48
f 44/55/48 45/56/49 1/59/52
